<?xml version="1.0" encoding="UTF-8"?>
<svg version="1.1" xmlns="http://www.w3.org/2000/svg" width="393" height="402">
<path d="M0 0 C0.85787109 -0.00386719 1.71574219 -0.00773437 2.59960938 -0.01171875 C3.41880859 -0.01042969 4.23800781 -0.00914063 5.08203125 -0.0078125 C5.82300049 -0.00668457 6.56396973 -0.00555664 7.32739258 -0.00439453 C9.1875 0.125 9.1875 0.125 11.1875 1.125 C12.23455172 4.82744013 12.31401945 8.39196657 12.31689453 12.22192383 C12.32004669 13.43121048 12.32319885 14.64049713 12.32644653 15.88642883 C12.32341019 17.83950203 12.32341019 17.83950203 12.3203125 19.83203125 C12.3209875 21.19903073 12.32195915 22.5660301 12.32321167 23.93302917 C12.32468489 26.80196269 12.3225498 29.67086504 12.31787109 32.53979492 C12.31223345 36.16902879 12.31541682 39.79818772 12.32144356 43.42741871 C12.32511055 46.25634798 12.32388192 49.08526042 12.32131577 51.91419029 C12.32034648 53.88784713 12.3233248 55.86150469 12.32644653 57.8351593 C12.30949796 64.52369886 12.17751552 71.20431924 11.86669922 77.88549805 C11.80988983 79.19882614 11.75308044 80.51215424 11.69454956 81.86528015 C11.1875 85.125 11.1875 85.125 9.7699585 87.02870178 C7.8428749 88.36374995 6.17179739 88.90961379 3.8984375 89.484375 C3.04749512 89.70923584 2.19655273 89.93409668 1.31982422 90.16577148 C0.40990723 90.39981689 -0.50000977 90.6338623 -1.4375 90.875 C-15.59572538 94.73290337 -28.81566035 99.48337404 -40.8125 108.125 C-41.55371094 108.64449219 -42.29492188 109.16398437 -43.05859375 109.69921875 C-64.51477606 125.49494654 -77.74769784 146.82705754 -81.8125 173.125 C-82.14018762 176.78357831 -82.36664672 180.40220672 -82.44140625 184.07421875 C-82.89360363 187.79175723 -83.62406758 190.06835513 -85.8125 193.125 C-90.71026046 194.46184282 -95.69200602 194.23226101 -100.75 194.1875 C-101.43384766 194.18298828 -102.11769531 194.17847656 -102.82226562 194.17382812 C-104.48571604 194.1621956 -106.1491205 194.14426694 -107.8125 194.125 C-107.17244637 197.19002056 -107.17244637 197.19002056 -105.0625 198.0625 C-104.32 198.413125 -103.5775 198.76375 -102.8125 199.125 C-100.54690507 200.8380108 -98.38832828 202.53317649 -96.40625 204.5703125 C-94.6697561 206.26424528 -92.83959125 207.64090518 -90.875 209.0625 C-86.05817403 212.64424239 -82.87509828 215.95640194 -79.8125 221.125 C-78.65130297 222.96180257 -77.48448345 224.79506093 -76.3125 226.625 C-74.61592083 229.27404467 -72.93390555 231.91912445 -71.3359375 234.62890625 C-65.15478208 244.75649166 -57.8926869 253.53765738 -48.8125 261.125 C-47.92820313 261.87394531 -47.04390625 262.62289063 -46.1328125 263.39453125 C-32.70205623 274.61163102 -20.47426054 279.54510944 -3.41015625 283.3046875 C6.44385804 285.66702611 6.44385804 285.66702611 9.453125 289.1015625 C12.19888814 293.88809554 12.35785998 298.04997408 12.44042969 303.4921875 C12.4625074 304.59533295 12.4625074 304.59533295 12.48503113 305.72076416 C12.53183515 308.14711261 12.57126744 310.57350023 12.609375 313 C12.62323494 313.82981384 12.63709488 314.65962769 12.65137482 315.5145874 C12.7245224 319.90223543 12.79208121 324.28992788 12.85498047 328.67773438 C12.92100994 333.21087661 13.0056233 337.74347202 13.0945549 342.2762146 C13.15964156 345.7624865 13.21112659 349.24886428 13.25888824 352.7354126 C13.28413782 354.40684419 13.31449798 356.07820669 13.35005951 357.74945068 C13.39847257 360.08562043 13.42765564 362.42128639 13.45214844 364.7578125 C13.47071396 365.44780334 13.48927948 366.13779419 13.50840759 366.84869385 C13.52171996 369.83961816 13.30848836 371.8935561 11.91290283 374.56323242 C9.42824322 376.81224972 7.12477082 376.51785826 3.89892578 376.36865234 C-30.22238152 373.30246608 -59.29974122 362.93115154 -85.8125 341.125 C-87.17761719 340.0421875 -87.17761719 340.0421875 -88.5703125 338.9375 C-91.18227718 336.82608605 -93.46425261 334.52785779 -95.8125 332.125 C-100.08198155 327.76525457 -104.35556983 323.52014612 -109.07421875 319.64453125 C-111.43579228 317.5801445 -113.60898153 315.35730173 -115.8125 313.125 C-123.97566329 304.67473749 -123.97566329 304.67473749 -132.6875 296.8125 C-135.81372013 294.23164014 -138.39269453 291.32602557 -141.0078125 288.234375 C-142.19948647 286.84150932 -143.42352699 285.47562404 -144.6796875 284.140625 C-167.97045104 259.25972901 -176.97264444 225.92256181 -177.05273438 192.57177734 C-177.06236762 190.15816808 -177.09343284 187.74543907 -177.125 185.33203125 C-177.33453245 154.63081841 -167.3607557 124.95247585 -147.8125 101.125 C-147.049375 100.114375 -146.28625 99.10375 -145.5 98.0625 C-144.943125 97.423125 -144.38625 96.78375 -143.8125 96.125 C-143.1525 96.125 -142.4925 96.125 -141.8125 96.125 C-141.56630417 95.55315979 -141.32010834 94.98131958 -141.06645203 94.39215088 C-139.60297708 91.74618163 -137.89854043 89.97815044 -135.74926758 87.85058594 C-134.91112015 87.01581726 -134.07297272 86.18104858 -133.20942688 85.32098389 C-132.30113632 84.42615295 -131.39284576 83.53132202 -130.45703125 82.609375 C-129.02800872 81.18830239 -127.5989889 79.76722705 -126.1701231 78.34599686 C-124.16644015 76.35543846 -122.15825947 74.3694481 -120.15002441 72.38348389 C-116.17534983 68.45191892 -112.20722299 64.5137785 -108.24258995 60.57209015 C-106.86760869 59.20719155 -105.48900359 57.84594662 -104.11030579 56.48480225 C-99.61312694 52.022019 -95.30118698 47.52278961 -91.2844696 42.6194458 C-89.8125 41.125 -89.8125 41.125 -86.8125 40.125 C-86.12152516 38.80410031 -85.45749766 37.46894949 -84.8125 36.125 C-76.64603696 27.52872311 -66.01623589 20.99828441 -55.8125 15.125 C-55.18601562 14.74472656 -54.55953125 14.36445312 -53.9140625 13.97265625 C-49.69469436 11.44294458 -45.44133171 9.71152989 -40.8125 8.125 C-40.15894531 7.89039063 -39.50539062 7.65578125 -38.83203125 7.4140625 C-26.08800344 2.96680326 -13.53225181 -0.06240854 0 0 Z " fill="#192E49" transform="translate(188.8125,22.875)"/>
<path d="M0 0 C0.99 0.33 1.98 0.66 3 1 C4.90870215 1.0923091 6.82051233 1.12464905 8.73144531 1.12457275 C9.9260437 1.12713577 11.12064209 1.12969879 12.35144043 1.13233948 C13.66374634 1.13023972 14.97605225 1.12813995 16.328125 1.12597656 C17.72269752 1.12737136 19.11726961 1.1292707 20.51184082 1.13163757 C23.51566915 1.13613429 26.51948382 1.13799065 29.52331543 1.13809967 C34.27111277 1.13923932 39.01883224 1.15207159 43.76660156 1.16766357 C44.56757641 1.17023643 45.36855125 1.17280928 46.19379807 1.1754601 C47.83160406 1.18072654 49.46941 1.18601202 51.10721588 1.19131613 C62.16133323 1.22644797 73.21535344 1.25297424 84.26953125 1.25048828 C91.72549305 1.24890165 99.18118928 1.26488696 106.63706589 1.30119491 C110.58374195 1.31968573 114.5299744 1.32897081 118.47668457 1.31671906 C122.18694098 1.3053125 125.89640181 1.31691346 129.60655212 1.34635353 C131.62054251 1.35619449 133.63460594 1.34119479 135.64855957 1.32554626 C136.84315796 1.33938858 138.03775635 1.3532309 139.26855469 1.36749268 C140.82929718 1.36969252 140.82929718 1.36969252 142.42156982 1.3719368 C145 2 145 2 146.84344482 4.41013718 C148.01318206 7.02951847 148.31141824 8.31798105 148.03125 11.125 C147.9576123 11.90302979 147.88397461 12.68105957 147.80810547 13.48266602 C147.70643066 14.31338623 147.60475586 15.14410645 147.5 16 C147.39961426 16.87648193 147.29922852 17.75296387 147.19580078 18.65600586 C141.87988332 61.06647076 120.1676756 89.03874175 90.72607422 118.40429688 C88.23678685 120.88818449 85.75294298 123.37742683 83.26953125 125.8671875 C81.66438331 127.47167518 80.0589255 129.07585292 78.453125 130.6796875 C77.7227301 131.41210663 76.99233521 132.14452576 76.23980713 132.8991394 C72.18382952 136.93688986 68.03533876 140.80582057 63.69467163 144.53657532 C61.53265128 146.4035765 59.45996238 148.36021705 57.375 150.3125 C38.24638768 167.45826836 16.399512 176.3220211 -8.41015625 182.08203125 C-9.17465088 182.25968018 -9.93914551 182.4373291 -10.72680664 182.62036133 C-13.25402132 183.04242328 -15.44560151 183.26752236 -18 183 C-20.45674888 179.31487668 -20.25324968 177.4980505 -20.25878906 173.10107422 C-20.2622937 172.40308212 -20.26579834 171.70509003 -20.26940918 170.98594666 C-20.27821919 168.67542604 -20.27237621 166.36521133 -20.265625 164.0546875 C-20.26697278 162.44385723 -20.26891425 160.83302736 -20.27142334 159.22219849 C-20.27437437 155.8411269 -20.27008106 152.46016088 -20.26074219 149.07910156 C-20.24940246 144.76524786 -20.25587222 140.45164453 -20.26788712 136.13780022 C-20.2751533 132.80730341 -20.27279512 129.47686479 -20.26763153 126.14636612 C-20.2663053 124.5573028 -20.26790645 122.96823406 -20.27259064 121.37917709 C-20.30965905 105.25513911 -20.30965905 105.25513911 -18 98 C-13.92394646 94.22632432 -9.44025869 93.11004162 -4.125 92 C15.81588818 87.31716858 34.90603942 69.08097122 45.9375 52 C46.288125 51.34 46.63875 50.68 47 50 C46.21882813 49.67128906 46.21882813 49.67128906 45.421875 49.3359375 C42.05822269 47.48050349 39.20771249 45.05382199 36.25 42.625 C30.8939203 38.28022189 25.47318911 34.05097916 19.9375 29.9375 C13.04626278 24.81157181 6.27614348 19.54833469 -0.45751953 14.21777344 C-3.95468125 11.45679802 -7.47840871 8.72969907 -11 6 C-10.625 3.5625 -10.625 3.5625 -10 1 C-6.85658007 -0.57170996 -3.44228549 -0.23175783 0 0 Z " fill="#192E48" transform="translate(235,215)"/>
<path d="M0 0 C0.74604492 0.17926025 1.49208984 0.35852051 2.26074219 0.54321289 C16.54180391 4.01727821 29.8597241 8.75447058 42.625 16.125 C43.83120475 16.79965689 45.03828383 17.47275225 46.24609375 18.14453125 C51.66723644 21.18230703 56.81881124 24.15637182 61.625 28.125 C63.28611315 29.3202561 64.95305019 30.50745006 66.625 31.6875 C78.20037055 40.09047621 88.67314315 49.74704999 99.01855469 59.59765625 C100.3618958 60.87485108 101.71494858 62.14182104 103.0703125 63.40625 C109.43804724 69.49929814 117.81789668 77.93720785 119 87 C118.000376 95.33020001 109.78774933 101.17043924 103.625 106.125 C98.3719316 110.1058409 92.98147373 113.89750452 87.60546875 117.70947266 C82.34377818 121.47023227 77.33807149 125.46170936 72.5 129.75 C71.2110692 130.87813349 69.91950783 132.00327042 68.625 133.125 C68.02816406 133.64835938 67.43132812 134.17171875 66.81640625 134.7109375 C63.95586977 137.01720522 62.11165029 138.10964453 58.40625 138.2265625 C53.05969365 136.66899133 50.40129603 133.51820554 46.6875 129.5 C45.34765046 128.08867449 44.00520805 126.67980592 42.66015625 125.2734375 C41.9952417 124.57694092 41.33032715 123.88044434 40.64526367 123.1628418 C37.46790437 119.95783659 34.05953266 117.04841306 30.625 114.125 C29.44788712 113.09396624 28.27205704 112.06146567 27.09765625 111.02734375 C13.88536121 99.49346499 0.34313728 91.40628074 -16.3984375 85.94921875 C-18.375 85.125 -18.375 85.125 -19.375 83.125 C-20.54786783 73.03592545 -20.52391906 62.87614353 -20.5078125 52.734375 C-20.50848814 51.21217839 -20.50946032 49.68998189 -20.51071167 48.16778564 C-20.51217105 45.01142324 -20.51008788 41.8550895 -20.50537109 38.69873047 C-20.49961559 34.6502447 -20.50300018 30.6018244 -20.50894356 26.55334091 C-20.51254702 23.4256134 -20.5114126 20.29790161 -20.50881577 17.17017365 C-20.50814893 15.67580406 -20.50896643 14.18143305 -20.51129532 12.68706512 C-20.51382462 10.61262678 -20.50998006 8.53829737 -20.50439453 6.46386719 C-20.50320114 4.69520294 -20.50320114 4.69520294 -20.50198364 2.89080811 C-20.375 0.125 -20.375 0.125 -19.375 -1.875 C-13.25615294 -3.91461569 -6.13987192 -1.48864521 0 0 Z " fill="#192D48" transform="translate(233.375,25.875)"/>
<path d="M0 0 C0.85787109 -0.00386719 1.71574219 -0.00773437 2.59960938 -0.01171875 C3.41880859 -0.01042969 4.23800781 -0.00914063 5.08203125 -0.0078125 C5.82300049 -0.00668457 6.56396973 -0.00555664 7.32739258 -0.00439453 C9.1875 0.125 9.1875 0.125 11.1875 1.125 C12.23455172 4.82744013 12.31401945 8.39196657 12.31689453 12.22192383 C12.32004669 13.43121048 12.32319885 14.64049713 12.32644653 15.88642883 C12.32341019 17.83950203 12.32341019 17.83950203 12.3203125 19.83203125 C12.3209875 21.19903073 12.32195915 22.5660301 12.32321167 23.93302917 C12.32468489 26.80196269 12.3225498 29.67086504 12.31787109 32.53979492 C12.31223345 36.16902879 12.31541682 39.79818772 12.32144356 43.42741871 C12.32511055 46.25634798 12.32388192 49.08526042 12.32131577 51.91419029 C12.32034648 53.88784713 12.3233248 55.86150469 12.32644653 57.8351593 C12.30949796 64.52369886 12.17751552 71.20431924 11.86669922 77.88549805 C11.80988983 79.19882614 11.75308044 80.51215424 11.69454956 81.86528015 C11.1875 85.125 11.1875 85.125 9.7699585 87.02870178 C7.8428749 88.36374995 6.17179739 88.90961379 3.8984375 89.484375 C3.04749512 89.70923584 2.19655273 89.93409668 1.31982422 90.16577148 C0.40990723 90.39981689 -0.50000977 90.6338623 -1.4375 90.875 C-15.59572538 94.73290337 -28.81566035 99.48337404 -40.8125 108.125 C-41.55371094 108.64449219 -42.29492188 109.16398437 -43.05859375 109.69921875 C-64.51477606 125.49494654 -77.74769784 146.82705754 -81.8125 173.125 C-82.14018762 176.78357831 -82.36664672 180.40220672 -82.44140625 184.07421875 C-82.89360363 187.79175723 -83.62406758 190.06835513 -85.8125 193.125 C-90.71026046 194.46184282 -95.69200602 194.23226101 -100.75 194.1875 C-101.43384766 194.18298828 -102.11769531 194.17847656 -102.82226562 194.17382812 C-104.48571604 194.1621956 -106.1491205 194.14426694 -107.8125 194.125 C-107.17244637 197.19002056 -107.17244637 197.19002056 -105.0625 198.0625 C-104.32 198.413125 -103.5775 198.76375 -102.8125 199.125 C-100.54690507 200.8380108 -98.38832828 202.53317649 -96.40625 204.5703125 C-94.6697561 206.26424528 -92.83959125 207.64090518 -90.875 209.0625 C-86.05817403 212.64424239 -82.87509828 215.95640194 -79.8125 221.125 C-78.65130297 222.96180257 -77.48448345 224.79506093 -76.3125 226.625 C-74.61592083 229.27404467 -72.93390555 231.91912445 -71.3359375 234.62890625 C-65.15478208 244.75649166 -57.8926869 253.53765738 -48.8125 261.125 C-47.92820313 261.87394531 -47.04390625 262.62289063 -46.1328125 263.39453125 C-32.70205623 274.61163102 -20.47426054 279.54510944 -3.41015625 283.3046875 C6.44385804 285.66702611 6.44385804 285.66702611 9.453125 289.1015625 C12.19888814 293.88809554 12.35785998 298.04997408 12.44042969 303.4921875 C12.4625074 304.59533295 12.4625074 304.59533295 12.48503113 305.72076416 C12.53183515 308.14711261 12.57126744 310.57350023 12.609375 313 C12.62323494 313.82981384 12.63709488 314.65962769 12.65137482 315.5145874 C12.7245224 319.90223543 12.79208121 324.28992788 12.85498047 328.67773438 C12.92100994 333.21087661 13.0056233 337.74347202 13.0945549 342.2762146 C13.15964156 345.7624865 13.21112659 349.24886428 13.25888824 352.7354126 C13.28413782 354.40684419 13.31449798 356.07820669 13.35005951 357.74945068 C13.39847257 360.08562043 13.42765564 362.42128639 13.45214844 364.7578125 C13.47071396 365.44780334 13.48927948 366.13779419 13.50840759 366.84869385 C13.52171996 369.83961816 13.30848836 371.8935561 11.91290283 374.56323242 C9.42824322 376.81224972 7.12477082 376.51785826 3.89892578 376.36865234 C-30.22238152 373.30246608 -59.29974122 362.93115154 -85.8125 341.125 C-87.17761719 340.0421875 -87.17761719 340.0421875 -88.5703125 338.9375 C-91.18227718 336.82608605 -93.46425261 334.52785779 -95.8125 332.125 C-100.08198155 327.76525457 -104.35556983 323.52014612 -109.07421875 319.64453125 C-111.43579228 317.5801445 -113.60898153 315.35730173 -115.8125 313.125 C-123.97566329 304.67473749 -123.97566329 304.67473749 -132.6875 296.8125 C-135.81372013 294.23164014 -138.39269453 291.32602557 -141.0078125 288.234375 C-142.19948647 286.84150932 -143.42352699 285.47562404 -144.6796875 284.140625 C-167.97045104 259.25972901 -176.97264444 225.92256181 -177.05273438 192.57177734 C-177.06236762 190.15816808 -177.09343284 187.74543907 -177.125 185.33203125 C-177.33453245 154.63081841 -167.3607557 124.95247585 -147.8125 101.125 C-147.049375 100.114375 -146.28625 99.10375 -145.5 98.0625 C-144.943125 97.423125 -144.38625 96.78375 -143.8125 96.125 C-143.1525 96.125 -142.4925 96.125 -141.8125 96.125 C-141.56630417 95.55315979 -141.32010834 94.98131958 -141.06645203 94.39215088 C-139.60297708 91.74618163 -137.89854043 89.97815044 -135.74926758 87.85058594 C-134.91112015 87.01581726 -134.07297272 86.18104858 -133.20942688 85.32098389 C-132.30113632 84.42615295 -131.39284576 83.53132202 -130.45703125 82.609375 C-129.02800872 81.18830239 -127.5989889 79.76722705 -126.1701231 78.34599686 C-124.16644015 76.35543846 -122.15825947 74.3694481 -120.15002441 72.38348389 C-116.17534983 68.45191892 -112.20722299 64.5137785 -108.24258995 60.57209015 C-106.86760869 59.20719155 -105.48900359 57.84594662 -104.11030579 56.48480225 C-99.61312694 52.022019 -95.30118698 47.52278961 -91.2844696 42.6194458 C-89.8125 41.125 -89.8125 41.125 -86.8125 40.125 C-86.12152516 38.80410031 -85.45749766 37.46894949 -84.8125 36.125 C-76.64603696 27.52872311 -66.01623589 20.99828441 -55.8125 15.125 C-55.18601562 14.74472656 -54.55953125 14.36445312 -53.9140625 13.97265625 C-49.69469436 11.44294458 -45.44133171 9.71152989 -40.8125 8.125 C-40.15894531 7.89039063 -39.50539062 7.65578125 -38.83203125 7.4140625 C-26.08800344 2.96680326 -13.53225181 -0.06240854 0 0 Z M-9.6875 3.75 C-10.69949463 3.83556152 -11.71148926 3.92112305 -12.75415039 4.00927734 C-21.57285916 4.87586776 -29.55424397 6.98470525 -37.8125 10.125 C-37.8125 10.785 -37.8125 11.445 -37.8125 12.125 C-38.328125 12.228125 -38.84375 12.33125 -39.375 12.4375 C-46.05357272 14.3212 -51.40327563 17.66138339 -57.17578125 21.43359375 C-59.25543265 22.76765161 -61.3194185 23.97233564 -63.5 25.125 C-67.08871196 27.29176948 -69.96173303 29.78438365 -73.015625 32.63671875 C-74.8125 34.125 -74.8125 34.125 -77.8125 35.125 C-77.8125 35.785 -77.8125 36.445 -77.8125 37.125 C-78.4725 37.125 -79.1325 37.125 -79.8125 37.125 C-80.369375 37.82625 -80.92625 38.5275 -81.5 39.25 C-84.86045377 43.42786145 -88.68559382 46.93185751 -93.375 49.5625 C-96.31551476 51.44744536 -98.14654813 53.6903783 -100.3515625 56.37109375 C-102.35874884 58.78079072 -104.5689306 60.93484891 -106.8125 63.125 C-108.14719457 64.4569707 -109.48041452 65.79041998 -110.8125 67.125 C-112.14583333 68.45833333 -113.47916667 69.79166667 -114.8125 71.125 C-115.57288574 71.88683594 -116.33327148 72.64867188 -117.11669922 73.43359375 C-119.73692757 76.04955077 -122.37064233 78.65113401 -125.0078125 81.25 C-126.48075433 82.70820584 -127.95274262 84.16736675 -129.42431641 85.62695312 C-130.43491542 86.62744289 -131.44729471 87.62613751 -132.46142578 88.62304688 C-133.94001588 90.07727248 -135.41195584 91.537958 -136.8828125 93 C-137.75695801 93.86367187 -138.63110352 94.72734375 -139.53173828 95.6171875 C-141.70493498 98.00672684 -143.20988435 100.33662392 -144.8125 103.125 C-146.45738294 104.81316933 -148.12587542 106.47853315 -149.8125 108.125 C-155.7660524 114.67390764 -159.41054973 121.98990153 -162.8125 130.125 C-163.51884939 131.41775266 -164.22727349 132.70937333 -164.9375 134 C-166.82967453 137.68400647 -167.34673056 140.93393046 -167.5390625 145.046875 C-167.8125 147.125 -167.8125 147.125 -168.7734375 148.96875 C-170.18336557 151.89461576 -170.41911827 154.65769939 -170.8125 157.875 C-171.27797722 161.64869035 -171.82707469 165.17868198 -172.82446289 168.85229492 C-173.86567316 172.96027186 -174.14972494 176.96395988 -174.18359375 181.19140625 C-174.19448029 181.93999405 -174.20536682 182.68858185 -174.21658325 183.45985413 C-174.24296209 185.86925148 -174.24931124 188.27796533 -174.25 190.6875 C-174.25272919 191.50748474 -174.25545837 192.32746948 -174.25827026 193.17230225 C-174.26571678 208.04535627 -172.53605962 221.95432113 -167.8125 236.125 C-167.1525 236.125 -166.4925 236.125 -165.8125 236.125 C-164.8225 240.415 -163.8325 244.705 -162.8125 249.125 C-162.1525 249.125 -161.4925 249.125 -160.8125 249.125 C-160.874375 249.970625 -160.93625 250.81625 -161 251.6875 C-160.76758841 255.94837919 -159.80581944 258.35984105 -157.8125 262.125 C-156.8225 262.455 -155.8325 262.785 -154.8125 263.125 C-153.625 265.1875 -153.625 265.1875 -152.8125 267.125 C-152.1525 267.125 -151.4925 267.125 -150.8125 267.125 C-150.998125 268.2078125 -150.998125 268.2078125 -151.1875 269.3125 C-151.07597405 272.44929786 -151.07597405 272.44929786 -147.9375 274.75 C-146.90625 275.53375 -145.875 276.3175 -144.8125 277.125 C-143.8225 278.61 -143.8225 278.61 -142.8125 280.125 C-142.1525 280.125 -141.4925 280.125 -140.8125 280.125 C-140.8125 280.785 -140.8125 281.445 -140.8125 282.125 C-140.1525 282.125 -139.4925 282.125 -138.8125 282.125 C-138.565 282.640625 -138.3175 283.15625 -138.0625 283.6875 C-136.41668384 286.89684151 -134.6148904 290.00085664 -132.8125 293.125 C-132.1525 293.125 -131.4925 293.125 -130.8125 293.125 C-130.3175 294.61 -130.3175 294.61 -129.8125 296.125 C-126.80402582 297.35020264 -126.80402582 297.35020264 -123.8125 298.125 C-123.8125 298.785 -123.8125 299.445 -123.8125 300.125 C-122.636875 300.2178125 -122.636875 300.2178125 -121.4375 300.3125 C-120.57125 300.580625 -119.705 300.84875 -118.8125 301.125 C-118.12209426 302.78197379 -117.4594365 304.4505761 -116.8125 306.125 C-114.83293058 307.81588222 -112.83304804 309.48330472 -110.8125 311.125 C-110.11312468 312.44147119 -109.44520867 313.77522151 -108.8125 315.125 C-106.52252024 317.66254514 -104.4811403 319.74550145 -101.5 321.4375 C-96.45775686 324.60355964 -92.58735316 329.28188325 -88.4765625 333.55078125 C-85.5230053 336.40473168 -82.43710019 338.93352725 -79.1875 341.4375 C-78.61515625 341.89189453 -78.0428125 342.34628906 -77.453125 342.81445312 C-74.04147372 345.53458045 -74.04147372 345.53458045 -69.8125 346.125 C-69.3175 347.61 -69.3175 347.61 -68.8125 349.125 C-65.30059191 350.35469878 -65.30059191 350.35469878 -61.8125 351.125 C-61.8125 351.785 -61.8125 352.445 -61.8125 353.125 C-60.4925 353.125 -59.1725 353.125 -57.8125 353.125 C-57.8125 353.785 -57.8125 354.445 -57.8125 355.125 C-37.81695232 364.43131013 -37.81695232 364.43131013 -16.375 368.125 C-15.529375 368.125 -14.68375 368.125 -13.8125 368.125 C-13.1525 368.785 -12.4925 369.445 -11.8125 370.125 C-9.91366776 370.50944882 -9.91366776 370.50944882 -7.75 370.57421875 C-6.95335937 370.61740234 -6.15671875 370.66058594 -5.3359375 370.70507812 C-4.50320312 370.74052734 -3.67046875 370.77597656 -2.8125 370.8125 C-1.97976562 370.85955078 -1.14703125 370.90660156 -0.2890625 370.95507812 C4.09404232 371.33342942 4.09404232 371.33342942 8.1875 370.125 C8.23403377 361.4316263 8.2694754 352.7382961 8.29112434 344.0448246 C8.30151967 340.00721431 8.31560029 335.96968983 8.33837891 331.93212891 C8.36026009 328.02879377 8.37210052 324.12554068 8.37725449 320.2221489 C8.38092303 318.73996058 8.38808601 317.25777628 8.39896011 315.77562332 C8.74114169 303.75189548 8.74114169 303.75189548 6.1875 292.125 C3.73001602 290.36931996 3.73001602 290.36931996 1.1875 290.125 C1.1875 289.465 1.1875 288.805 1.1875 288.125 C0.16011719 287.94324219 -0.86726562 287.76148438 -1.92578125 287.57421875 C-19.13749835 284.4758598 -36.59581948 280.76899957 -47.8125 266.125 C-50.85348249 263.2119093 -53.93396411 260.64413484 -57.5625 258.5 C-60.0109356 257.0037338 -61.1492356 255.42188894 -62.8125 253.125 C-63.4725 253.125 -64.1325 253.125 -64.8125 253.125 C-64.8125 252.465 -64.8125 251.805 -64.8125 251.125 C-65.8025 251.125 -66.7925 251.125 -67.8125 251.125 C-68.01875 250.279375 -68.225 249.43375 -68.4375 248.5625 C-69.67428363 245.47054092 -70.32806242 244.40119058 -72.5 242.125 C-75.50746319 238.84014943 -77.3610989 235.24355575 -79.25 231.25 C-83.84323462 221.66939181 -89.09556786 215.13501051 -97.8125 209.125 C-103.64974693 204.93039542 -107.79829861 201.08548086 -111.8125 195.125 C-112.4725 195.125 -113.1325 195.125 -113.8125 195.125 C-113.4825 193.475 -113.1525 191.825 -112.8125 190.125 C-111.73766357 190.08741577 -111.73766357 190.08741577 -110.64111328 190.04907227 C-107.40638486 189.93330249 -104.17196159 189.81049031 -100.9375 189.6875 C-99.80957031 189.64818359 -98.68164062 189.60886719 -97.51953125 189.56835938 C-95.90498047 189.50551758 -95.90498047 189.50551758 -94.2578125 189.44140625 C-93.26281738 189.40474854 -92.26782227 189.36809082 -91.24267578 189.33032227 C-88.80470499 189.27540468 -88.80470499 189.27540468 -86.8125 188.125 C-86.42898614 185.58954723 -86.15580144 183.1132385 -85.9375 180.5625 C-84.79184098 169.33932893 -82.80020533 158.02443333 -77.546875 147.921875 C-76.56028707 145.83140838 -76.56028707 145.83140838 -76.8125 142.125 C-76.1525 142.125 -75.4925 142.125 -74.8125 142.125 C-74.461875 141.34125 -74.11125 140.5575 -73.75 139.75 C-70.77013372 133.7760776 -66.62166152 128.36264715 -62.4375 123.1875 C-60.62471455 121.12617611 -60.62471455 121.12617611 -59.8125 118.125 C-57.95089609 116.48013785 -56.10894102 114.98315151 -54.125 113.5 C-53.5477417 113.06341064 -52.9704834 112.62682129 -52.37573242 112.17700195 C-40.89498404 103.61165568 -28.98588854 95.67915058 -15.078125 91.80859375 C-11.08588915 90.60403983 -7.76273508 89.07523508 -4.8125 86.125 C-2.75390625 85.5625 -2.75390625 85.5625 -0.375 85.125 C2.90155634 84.52042947 4.3179565 84.038029 7.1875 82.125 C7.47410203 79.58147517 7.56607678 77.28213036 7.52807617 74.73779297 C7.52851425 73.97672241 7.52895233 73.21565186 7.52940369 72.43151855 C7.52730959 69.90981607 7.50395001 67.38877417 7.48046875 64.8671875 C7.47487499 63.12127038 7.47060385 61.37534856 7.46760559 59.62942505 C7.45613948 55.0294296 7.42665727 50.42971737 7.39349365 45.82983398 C7.36283071 41.13789705 7.34910835 36.44591445 7.33398438 31.75390625 C7.30178913 22.54414625 7.25057159 13.33459666 7.1875 4.125 C1.34124332 3.0974076 -3.7938446 3.24473293 -9.6875 3.75 Z " fill="#010305" transform="translate(188.8125,22.875)"/>
<path d="M0 0 C0.99 0.33 1.98 0.66 3 1 C4.90870215 1.0923091 6.82051233 1.12464905 8.73144531 1.12457275 C9.9260437 1.12713577 11.12064209 1.12969879 12.35144043 1.13233948 C13.66374634 1.13023972 14.97605225 1.12813995 16.328125 1.12597656 C17.72269752 1.12737136 19.11726961 1.1292707 20.51184082 1.13163757 C23.51566915 1.13613429 26.51948382 1.13799065 29.52331543 1.13809967 C34.27111277 1.13923932 39.01883224 1.15207159 43.76660156 1.16766357 C44.56757641 1.17023643 45.36855125 1.17280928 46.19379807 1.1754601 C47.83160406 1.18072654 49.46941 1.18601202 51.10721588 1.19131613 C62.16133323 1.22644797 73.21535344 1.25297424 84.26953125 1.25048828 C91.72549305 1.24890165 99.18118928 1.26488696 106.63706589 1.30119491 C110.58374195 1.31968573 114.5299744 1.32897081 118.47668457 1.31671906 C122.18694098 1.3053125 125.89640181 1.31691346 129.60655212 1.34635353 C131.62054251 1.35619449 133.63460594 1.34119479 135.64855957 1.32554626 C136.84315796 1.33938858 138.03775635 1.3532309 139.26855469 1.36749268 C140.82929718 1.36969252 140.82929718 1.36969252 142.42156982 1.3719368 C145 2 145 2 146.84344482 4.41013718 C148.01318206 7.02951847 148.31141824 8.31798105 148.03125 11.125 C147.9576123 11.90302979 147.88397461 12.68105957 147.80810547 13.48266602 C147.70643066 14.31338623 147.60475586 15.14410645 147.5 16 C147.39961426 16.87648193 147.29922852 17.75296387 147.19580078 18.65600586 C141.87988332 61.06647076 120.1676756 89.03874175 90.72607422 118.40429688 C88.23678685 120.88818449 85.75294298 123.37742683 83.26953125 125.8671875 C81.66438331 127.47167518 80.0589255 129.07585292 78.453125 130.6796875 C77.7227301 131.41210663 76.99233521 132.14452576 76.23980713 132.8991394 C72.18382952 136.93688986 68.03533876 140.80582057 63.69467163 144.53657532 C61.53265128 146.4035765 59.45996238 148.36021705 57.375 150.3125 C38.24638768 167.45826836 16.399512 176.3220211 -8.41015625 182.08203125 C-9.17465088 182.25968018 -9.93914551 182.4373291 -10.72680664 182.62036133 C-13.25402132 183.04242328 -15.44560151 183.26752236 -18 183 C-20.45674888 179.31487668 -20.25324968 177.4980505 -20.25878906 173.10107422 C-20.2622937 172.40308212 -20.26579834 171.70509003 -20.26940918 170.98594666 C-20.27821919 168.67542604 -20.27237621 166.36521133 -20.265625 164.0546875 C-20.26697278 162.44385723 -20.26891425 160.83302736 -20.27142334 159.22219849 C-20.27437437 155.8411269 -20.27008106 152.46016088 -20.26074219 149.07910156 C-20.24940246 144.76524786 -20.25587222 140.45164453 -20.26788712 136.13780022 C-20.2751533 132.80730341 -20.27279512 129.47686479 -20.26763153 126.14636612 C-20.2663053 124.5573028 -20.26790645 122.96823406 -20.27259064 121.37917709 C-20.30965905 105.25513911 -20.30965905 105.25513911 -18 98 C-13.92394646 94.22632432 -9.44025869 93.11004162 -4.125 92 C15.81588818 87.31716858 34.90603942 69.08097122 45.9375 52 C46.288125 51.34 46.63875 50.68 47 50 C46.21882813 49.67128906 46.21882813 49.67128906 45.421875 49.3359375 C42.05822269 47.48050349 39.20771249 45.05382199 36.25 42.625 C30.8939203 38.28022189 25.47318911 34.05097916 19.9375 29.9375 C13.04626278 24.81157181 6.27614348 19.54833469 -0.45751953 14.21777344 C-3.95468125 11.45679802 -7.47840871 8.72969907 -11 6 C-10.625 3.5625 -10.625 3.5625 -10 1 C-6.85658007 -0.57170996 -3.44228549 -0.23175783 0 0 Z M0 7 C1.38956025 10.35810395 2.82526467 12.18586552 6 14 C8.66761764 14.25124826 8.66761764 14.25124826 11 14 C11 15.32 11 16.64 11 18 C12.32 18 13.64 18 15 18 C15.12375 18.61875 15.2475 19.2375 15.375 19.875 C15.87197356 22.19120832 15.87197356 22.19120832 18 24 C18.61875 24.103125 19.2375 24.20625 19.875 24.3125 C22 25 22 25 23.6875 27.25 C26.42232501 30.50222433 29.17017656 31.86270767 32.8828125 33.81640625 C36.46634893 35.81974857 38.48164433 38.05343748 40.4375 41.625 C42.34398154 44.52285195 43.79129513 44.87695329 47 46 C49.41193803 47.80895352 49.92953731 48.72455494 50.6875 51.6875 C50.790625 52.450625 50.89375 53.21375 51 54 C50.46375 54.20625 49.9275 54.4125 49.375 54.625 C45.41058131 56.92018977 41.74879055 59.94686461 40.15234375 64.32421875 C38.64223738 67.83073692 36.28925379 70.27731476 33.6875 73 C33.21376953 73.50789063 32.74003906 74.01578125 32.25195312 74.5390625 C30.84691165 76.03828597 29.42552948 77.52027355 28 79 C27.11957031 79.928125 26.23914063 80.85625 25.33203125 81.8125 C23 84 23 84 20 85 C19.29359375 85.76828125 18.5871875 86.5365625 17.859375 87.328125 C14.2868305 90.66640428 10.77291494 92.04913991 6.25 93.75 C1.26079039 95.32006976 1.26079039 95.32006976 -3 98 C-6.06464968 98.49648228 -9.13665918 98.90111145 -12.21484375 99.3046875 C-15.3176407 99.74746768 -15.3176407 99.74746768 -17 103 C-17.18357089 105.47755487 -17.25249461 107.84064208 -17.22705078 110.31713867 C-17.22734283 111.05884811 -17.22763489 111.80055756 -17.22793579 112.56474304 C-17.22654264 115.01593735 -17.21098227 117.46682755 -17.1953125 119.91796875 C-17.19158232 121.61761814 -17.18873537 123.31726969 -17.18673706 125.016922 C-17.17910102 129.49024391 -17.15945279 133.96343594 -17.1373291 138.43670654 C-17.11687004 143.00140628 -17.10773522 147.566127 -17.09765625 152.13085938 C-17.07620687 161.08729665 -17.04207127 170.04363752 -17 179 C-15.57007101 178.8476049 -14.14033977 178.6933537 -12.71069336 178.53833008 C-11.51638954 178.40978386 -11.51638954 178.40978386 -10.29795837 178.27864075 C-2.38360191 177.31897924 5.16538633 175.16579842 12.47265625 172.02734375 C15.2750281 170.88820342 18.1086417 170.01266541 21 169.125 C26.91674222 167.18049521 31.8424377 164.45762977 37 161 C37.85722656 160.42894531 38.71445312 159.85789062 39.59765625 159.26953125 C44.67151007 155.80278045 49.55515624 152.25158969 54 148 C54 147.01 54 146.02 54 145 C54.8353125 144.6596875 54.8353125 144.6596875 55.6875 144.3125 C59.21775676 142.30884076 61.69856342 139.37029566 64.4765625 136.4453125 C67.46484326 133.36508464 70.26271392 131.16369194 74 129 C76.31377147 127.10415891 76.31377147 127.10415891 78 125 C78 124.01 78 123.02 78 122 C78.99 122 79.98 122 81 122 C84.05076843 118.96344042 84.05076843 118.96344042 85 115 C85.8971875 114.5978125 85.8971875 114.5978125 86.8125 114.1875 C88.99847854 113.00082594 90.41332594 111.90400887 92 110 C92 109.34 92 108.68 92 108 C92.87914062 107.773125 93.75828125 107.54625 94.6640625 107.3125 C98.52071864 105.79512709 100.50503227 103.96477146 103.375 101 C104.24898438 100.113125 105.12296875 99.22625 106.0234375 98.3125 C108.21657776 96.25363152 108.21657776 96.25363152 108 94 C108.87591797 93.63648438 108.87591797 93.63648438 109.76953125 93.265625 C116.41372256 89.49554096 120.73422243 81.10412297 124.875 74.8125 C125.25615967 74.24305664 125.63731934 73.67361328 126.0300293 73.08691406 C128.5825613 69.11337895 129.90514001 65.53502534 131 61 C131.66 61 132.32 61 133 61 C133.30744141 59.50146484 133.30744141 59.50146484 133.62109375 57.97265625 C134.02521484 56.03712891 134.02521484 56.03712891 134.4375 54.0625 C134.70433594 52.77472656 134.97117187 51.48695313 135.24609375 50.16015625 C136 47 136 47 137 46 C137.51929902 43.31448219 137.99496733 40.63581462 138.4375 37.9375 C139.13925418 33.67870613 139.84715634 29.53466442 141.03515625 25.37890625 C142.09790976 21.3737812 142.3198862 17.345887 142.56030273 13.22631836 C142.60364494 12.53064507 142.64698715 11.83497177 142.69164276 11.11821747 C142.79748555 9.41233191 142.89916095 7.70618866 143 6 C141.82889175 6.00490952 141.82889175 6.00490952 140.63412476 6.00991821 C122.28892796 6.07469471 103.94923623 5.98191971 85.60532379 5.75304413 C82.21335544 5.71077291 78.8213726 5.66992618 75.42938232 5.62945557 C56.73552543 5.40522253 56.73552543 5.40522253 47.4609375 5.27636719 C41.66947011 5.19621487 35.87795696 5.12598406 30.08628464 5.06242752 C27.90215777 5.03659998 25.71807115 5.00708425 23.53404617 4.97373581 C20.51181963 4.92797892 17.4897021 4.8948755 14.46728516 4.86474609 C13.57712204 4.8482048 12.68695892 4.83166351 11.76982117 4.81462097 C7.38119292 4.78441161 3.99271534 4.92539198 0 7 Z " fill="#010204" transform="translate(235,215)"/>
<path d="M0 0 C0.74604492 0.17926025 1.49208984 0.35852051 2.26074219 0.54321289 C16.54180391 4.01727821 29.8597241 8.75447058 42.625 16.125 C43.83120475 16.79965689 45.03828383 17.47275225 46.24609375 18.14453125 C51.66723644 21.18230703 56.81881124 24.15637182 61.625 28.125 C63.28611315 29.3202561 64.95305019 30.50745006 66.625 31.6875 C78.20037055 40.09047621 88.67314315 49.74704999 99.01855469 59.59765625 C100.3618958 60.87485108 101.71494858 62.14182104 103.0703125 63.40625 C109.43804724 69.49929814 117.81789668 77.93720785 119 87 C118.000376 95.33020001 109.78774933 101.17043924 103.625 106.125 C98.3719316 110.1058409 92.98147373 113.89750452 87.60546875 117.70947266 C82.34377818 121.47023227 77.33807149 125.46170936 72.5 129.75 C71.2110692 130.87813349 69.91950783 132.00327042 68.625 133.125 C68.02816406 133.64835938 67.43132812 134.17171875 66.81640625 134.7109375 C63.95586977 137.01720522 62.11165029 138.10964453 58.40625 138.2265625 C53.05969365 136.66899133 50.40129603 133.51820554 46.6875 129.5 C45.34765046 128.08867449 44.00520805 126.67980592 42.66015625 125.2734375 C41.9952417 124.57694092 41.33032715 123.88044434 40.64526367 123.1628418 C37.46790437 119.95783659 34.05953266 117.04841306 30.625 114.125 C29.44788712 113.09396624 28.27205704 112.06146567 27.09765625 111.02734375 C13.88536121 99.49346499 0.34313728 91.40628074 -16.3984375 85.94921875 C-18.375 85.125 -18.375 85.125 -19.375 83.125 C-20.54786783 73.03592545 -20.52391906 62.87614353 -20.5078125 52.734375 C-20.50848814 51.21217839 -20.50946032 49.68998189 -20.51071167 48.16778564 C-20.51217105 45.01142324 -20.51008788 41.8550895 -20.50537109 38.69873047 C-20.49961559 34.6502447 -20.50300018 30.6018244 -20.50894356 26.55334091 C-20.51254702 23.4256134 -20.5114126 20.29790161 -20.50881577 17.17017365 C-20.50814893 15.67580406 -20.50896643 14.18143305 -20.51129532 12.68706512 C-20.51382462 10.61262678 -20.50998006 8.53829737 -20.50439453 6.46386719 C-20.50320114 4.69520294 -20.50320114 4.69520294 -20.50198364 2.89080811 C-20.375 0.125 -20.375 0.125 -19.375 -1.875 C-13.25615294 -3.91461569 -6.13987192 -1.48864521 0 0 Z M-16.375 1.125 C-16.39821756 10.00058336 -16.41596298 18.87615619 -16.42681217 27.75176334 C-16.43202044 31.87350096 -16.43908061 35.99521774 -16.45043945 40.11694336 C-16.46134158 44.09806459 -16.46729232 48.07916582 -16.46987724 52.06030083 C-16.47171832 53.57566073 -16.47531341 55.09101959 -16.48073006 56.60637093 C-16.48803782 58.73638358 -16.48898686 60.86631463 -16.48852539 62.99633789 C-16.490746 64.2065712 -16.49296661 65.4168045 -16.49525452 66.66371155 C-16.2549077 74.75441961 -16.2549077 74.75441961 -13.375 82.125 C-10.71952186 83.40410934 -8.3423884 84.36380227 -5.5625 85.25 C-4.13773991 85.72706899 -2.71451534 86.20875169 -1.29296875 86.6953125 C-0.27855713 87.04190918 -0.27855713 87.04190918 0.75634766 87.39550781 C3.22125601 88.35776887 5.3679597 89.7553777 7.625 91.125 C8.615 91.125 9.605 91.125 10.625 91.125 C10.625 91.785 10.625 92.445 10.625 93.125 C12.605 93.785 14.585 94.445 16.625 95.125 C16.625 95.785 16.625 96.445 16.625 97.125 C18.56875954 98.94128776 18.56875954 98.94128776 21 100.75 C22.21816406 101.69746094 22.21816406 101.69746094 23.4609375 102.6640625 C25.46609879 104.31150808 25.46609879 104.31150808 27.625 104.125 C27.625 105.115 27.625 106.105 27.625 107.125 C28.945 107.125 30.265 107.125 31.625 107.125 C31.625 107.785 31.625 108.445 31.625 109.125 C32.285 109.125 32.945 109.125 33.625 109.125 C33.9653125 109.99125 33.9653125 109.99125 34.3125 110.875 C35.53005112 113.28017515 35.53005112 113.28017515 37.9375 114.9375 C40.79341845 117.26208478 42.39894299 119.53825735 44.31640625 122.63671875 C45.96144953 124.50764857 47.24819859 124.58062013 49.625 125.125 C50.33747732 126.7726038 50.99900383 128.44263529 51.625 130.125 C53.75273539 132.93665034 54.81322051 133.99459837 58.32421875 134.55859375 C62.89735927 133.95786168 65.24567773 131.80595591 68.6875 128.875 C69.5856543 128.13830078 69.5856543 128.13830078 70.50195312 127.38671875 C71.67298071 126.42475743 72.83809582 125.45554422 73.99658203 124.47851562 C75.48437208 123.24188773 77.01954476 122.06284341 78.55859375 120.890625 C79.24050781 120.30796875 79.92242187 119.7253125 80.625 119.125 C80.625 118.465 80.625 117.805 80.625 117.125 C81.16125 116.8775 81.6975 116.63 82.25 116.375 C84.55213938 115.16334769 86.68575269 113.80357271 88.83203125 112.3359375 C90.21172543 111.4041179 91.60834977 110.49732994 93.01171875 109.6015625 C93.83285156 109.07304687 94.65398437 108.54453125 95.5 108 C96.28117187 107.50242187 97.06234375 107.00484375 97.8671875 106.4921875 C98.44726562 106.04101562 99.02734375 105.58984375 99.625 105.125 C99.625 104.465 99.625 103.805 99.625 103.125 C100.20121094 102.85429687 100.77742188 102.58359375 101.37109375 102.3046875 C103.64935778 101.11225121 105.62545144 99.78362379 107.6875 98.25 C108.35910156 97.75757812 109.03070313 97.26515625 109.72265625 96.7578125 C112.42142287 94.44141733 114.33392262 92.48093545 115.09375 88.94140625 C115.18595405 83.80330828 115.18595405 83.80330828 112.4375 79.5625 C111.509375 78.758125 110.58125 77.95375 109.625 77.125 C108.83850605 75.89763401 108.09097491 74.64479523 107.375 73.375 C104.27710535 68.17566727 99.98494708 64.26450032 95.625 60.125 C95.08101563 59.54363281 94.53703125 58.96226563 93.9765625 58.36328125 C92.68473084 56.8998228 92.68473084 56.8998228 90.625 57.125 C90.625 56.465 90.625 55.805 90.625 55.125 C89.7175 54.67125 88.81 54.2175 87.875 53.75 C85.45833333 52.54166667 83.04166667 51.33333333 80.625 50.125 C80.625 49.465 80.625 48.805 80.625 48.125 C79.35443475 46.43767956 79.35443475 46.43767956 77.625 45.125 C76.635 45.125 75.645 45.125 74.625 45.125 C74.295 44.135 73.965 43.145 73.625 42.125 C71.97428604 41.09888051 70.30529994 40.10191857 68.625 39.125 C67.26926252 37.81445377 65.93887169 36.47751497 64.625 35.125 C63.53607261 34.0879263 62.43035747 33.06832275 61.3125 32.0625 C60.78011719 31.57652344 60.24773437 31.09054688 59.69921875 30.58984375 C56.87523599 28.59550565 53.80329499 27.47552151 50.625 26.125 C48.4752747 24.87491643 46.34969864 23.58240136 44.25 22.25 C30.06183565 13.37228599 16.23866908 5.45285349 -0.76171875 4.46875 C-3.375 4.125 -3.375 4.125 -5.70703125 3.15625 C-8.13287065 2.21859026 -9.98636242 1.85089831 -12.54174805 1.56054688 C-13.80672119 1.41681641 -15.07169434 1.27308594 -16.375 1.125 Z " fill="#010305" transform="translate(233.375,25.875)"/>
<path d="M0 0 C48.84 0 97.68 0 148 0 C148.33 0.66 148.66 1.32 149 2 C142.96265343 3.06109669 137.10524279 3.13095611 130.984375 3.09375 C129.8047821 3.09016479 128.62518921 3.08657959 127.40985107 3.08288574 C105.91942455 2.99403745 84.42927626 2.74967682 62.93981934 2.53643799 C56.73072251 2.47512144 50.52161063 2.41536846 44.3125 2.35546875 C32.20831845 2.23847604 20.10415408 2.11979925 8 2 C7.67 2.99 7.34 3.98 7 5 C10.28804981 7.91227269 12.59885603 9.49701212 17 10 C16.67 11.32 16.34 12.64 16 14 C12.56558677 12.1166121 9.43812373 9.91175912 6.3125 7.5625 C5.54550781 6.98628906 4.77851563 6.41007813 3.98828125 5.81640625 C2 4 2 4 0 0 Z " fill="#081024" transform="translate(229,219)"/>
<path d="M0 0 C3.30081791 1.61897259 6.52557433 3.35924309 9.75 5.125 C11.22726563 5.93324219 11.22726563 5.93324219 12.734375 6.7578125 C13.48203125 7.16773438 14.2296875 7.57765625 15 8 C15 8.66 15 9.32 15 10 C17.88207449 10.72906558 20.77140383 11.41689476 23.66796875 12.0859375 C24.56193359 12.29476563 25.45589844 12.50359375 26.37695312 12.71875 C28.23040228 13.15152201 30.0845584 13.58127887 31.93945312 14.0078125 C37.73088958 15.36757711 43.43907882 16.86672445 49 19 C50.05417114 19.35457275 50.05417114 19.35457275 51.12963867 19.71630859 C53.94423212 21.64805802 54.1384201 23.73688242 55 27 C55.17282941 29.59182711 55.25405262 32.07007691 55.22705078 34.65771484 C55.22734283 35.39986237 55.22763489 36.14200989 55.22793579 36.90664673 C55.22655072 39.34153235 55.21102871 41.77610582 55.1953125 44.2109375 C55.19157944 45.90629916 55.18873385 47.60166299 55.18673706 49.29702759 C55.1791237 53.74564638 55.15949505 58.19413328 55.1373291 62.6427002 C55.11682107 67.18756324 55.10772476 71.73244771 55.09765625 76.27734375 C55.0762469 85.18495358 55.04213882 94.0924658 55 103 C52.61707253 103.01782871 50.23428077 103.03079127 47.85131836 103.04101562 C47.18298729 103.04651428 46.51465622 103.05201294 45.82607269 103.05767822 C40.27219481 103.07551143 35.01217426 102.49903194 29.5625 101.5 C28.72396484 101.35691406 27.88542969 101.21382813 27.02148438 101.06640625 C25.01239666 100.72199121 23.00586031 100.362739 21 100 C21 99.34 21 98.68 21 98 C18.36 97.67 15.72 97.34 13 97 C16.16166689 95.97941678 18.12494116 96.07125399 21.3125 96.9375 C25.35390736 97.9344697 28.85011964 98.17659065 33 98 C33.33 98.66 33.66 99.32 34 100 C40.6 100.33 47.2 100.66 54 101 C53.89149748 92.30654114 53.7792713 83.61315155 53.66066074 74.9198246 C53.60571838 70.88228476 53.55234762 66.84473742 53.50268555 62.80712891 C53.45461464 58.90374475 53.40226261 55.00043847 53.34705925 51.0971489 C53.32682734 49.61499368 53.30808534 48.13281729 53.29092598 46.65062332 C53.1981595 38.7246544 53.00264755 30.87248172 52 23 C49.525 22.01 49.525 22.01 47 21 C47 20.34 47 19.68 47 19 C46.071875 19.061875 45.14375 19.12375 44.1875 19.1875 C39.82087975 19.19632146 35.94165889 18.01150892 31.77734375 16.7890625 C29.25538777 16.07255743 26.75725189 15.51135029 24.1875 15 C15.54777476 13.09529867 4.93214132 7.50543244 0 0 Z " fill="#081327" transform="translate(143,292)"/>
<path d="M0 0 C1.43872134 2.87744268 1.11937153 5.34565922 1.11352539 8.56103516 C1.11367142 9.23432358 1.11381744 9.907612 1.1139679 10.6013031 C1.11327027 12.83058881 1.10548489 15.05979135 1.09765625 17.2890625 C1.09579154 18.83320063 1.09436789 20.37733934 1.09336853 21.92147827 C1.08954754 25.98870472 1.07972082 30.05589555 1.06866455 34.12310791 C1.05844144 38.2721712 1.05386898 42.42124025 1.04882812 46.5703125 C1.03809819 54.71355803 1.02102677 62.85677458 1 71 C2.18078125 71.13277344 3.3615625 71.26554687 4.578125 71.40234375 C6.13543262 71.5805898 7.69272342 71.75898293 9.25 71.9375 C10.02730469 72.02451172 10.80460938 72.11152344 11.60546875 72.20117188 C12.35957031 72.28818359 13.11367187 72.37519531 13.890625 72.46484375 C14.92751465 72.58267212 14.92751465 72.58267212 15.98535156 72.70288086 C18.03695313 73.00544983 19.99782535 73.46412384 22 74 C14.13609593 76.8492406 6.41142862 79.07419795 -2 79 C-2.04630347 69.1426629 -2.08185907 59.2853516 -2.10362434 49.42792797 C-2.11406962 44.85092012 -2.12824237 40.27398657 -2.15087891 35.69702148 C-2.17258079 31.28149496 -2.18456302 26.86603999 -2.18975449 22.45046425 C-2.19345502 20.76432481 -2.20068108 19.07818936 -2.21146011 17.39208031 C-2.22593983 15.03367976 -2.22797943 12.67557638 -2.22705078 10.31713867 C-2.23424133 9.61726837 -2.24143188 8.91739807 -2.24884033 8.19631958 C-2.23330228 4.55896435 -2.07949842 3.11924762 0 0 Z " fill="#0F1C30" transform="translate(220,315)"/>
<path d="M0 0 C0.81404297 0.00064453 1.62808594 0.00128906 2.46679688 0.00195312 C8.42165179 0.04665179 8.42165179 0.04665179 9.5625 1.1875 C9.66811429 3.60014104 9.70928383 5.98429926 9.70776367 8.39770508 C9.71112228 9.15220444 9.7144809 9.9067038 9.71794128 10.68406677 C9.7274816 13.19173811 9.72939612 15.69934287 9.73046875 18.20703125 C9.73367988 19.94479907 9.73704384 21.68256662 9.74055481 23.42033386 C9.74655427 27.06969835 9.74839394 30.71903913 9.74780273 34.3684082 C9.74770122 39.04599328 9.76133844 43.72342619 9.77857494 48.40097523 C9.78969301 51.99290159 9.79172198 55.5847912 9.79119301 59.17673302 C9.79237399 60.90111502 9.7968024 62.62549794 9.80452538 64.34986305 C9.81431865 66.76305401 9.81144959 69.1759151 9.80541992 71.58911133 C9.81103943 72.30251678 9.81665894 73.01592224 9.82244873 73.75094604 C9.7994809 77.36687638 9.68072797 80.1758773 7.5625 83.1875 C5.57421875 84.015625 5.57421875 84.015625 3.25 84.4375 C2.45078125 84.58445312 1.6515625 84.73140625 0.828125 84.8828125 C-1.62050268 85.2121107 -3.96996834 85.34669559 -6.4375 85.1875 C-4.13739124 82.88739124 -3.06228923 82.72865246 0.0625 82.125 C3.41709814 81.46797869 3.41709814 81.46797869 6.5625 80.1875 C6.56027939 79.54952988 6.55805878 78.91155975 6.55577087 78.2542572 C6.53328372 71.48697482 6.51841689 64.71970338 6.50756836 57.95239258 C6.5026042 55.44197151 6.49583068 52.93155323 6.48706055 50.42114258 C6.43225339 34.30461402 6.73850553 18.28458888 7.5625 2.1875 C-4.8125 2.6825 -4.8125 2.6825 -17.4375 3.1875 C-17.4375 2.8575 -17.4375 2.5275 -17.4375 2.1875 C-11.47483305 0.4594877 -6.19125993 -0.09634229 0 0 Z " fill="#050B15" transform="translate(188.4375,24.8125)"/>
<path d="M0 0 C1.59186609 0.14849418 3.18344688 0.30004867 4.77490234 0.45288086 C5.66124359 0.53694687 6.54758484 0.62101288 7.46078491 0.70762634 C10.59820625 1.06887945 13.57592672 1.74705017 16.625 2.5625 C17.64851563 2.83191406 18.67203125 3.10132813 19.7265625 3.37890625 C20.47679687 3.58386719 21.22703125 3.78882813 22 4 C22 4.33 22 4.66 22 5 C16.93880906 5.17156579 13.677202 5.02257384 9 3 C6.29113059 2.83201738 6.29113059 2.83201738 4 3 C4 2.34 4 1.68 4 1 C3.01 1 2.02 1 1 1 C1.10777044 9.87566164 1.22045699 18.75124353 1.33933926 27.62676334 C1.3943942 31.74846412 1.44778525 35.87017218 1.49731445 39.99194336 C1.54521644 43.97312177 1.59756658 47.95421958 1.65294075 51.93530083 C1.67324787 53.45063698 1.69197926 54.96599513 1.70907402 56.48137093 C1.73337802 58.61144033 1.76339386 60.74136108 1.79467773 62.87133789 C1.81022202 64.0815712 1.8257663 65.2918045 1.84178162 66.53871155 C2.08144629 71.78177212 2.91212178 76.87143124 4 82 C5.26457031 82.15662109 5.26457031 82.15662109 6.5546875 82.31640625 C10.37752285 83.07490533 13.56244802 84.36397542 17.125 85.9375 C18.32382813 86.46214844 19.52265625 86.98679687 20.7578125 87.52734375 C23.20256567 88.63779188 25.61356554 89.77116434 28 91 C28 91.66 28 92.32 28 93 C29.98 93.66 31.96 94.32 34 95 C34 95.66 34 96.32 34 97 C30.2089881 95.55049545 26.6125362 93.84827434 23 92 C23 91.34 23 90.68 23 90 C21.989375 89.9175 20.97875 89.835 19.9375 89.75 C16.41123057 89.25433964 13.87250476 87.94486692 10.83984375 86.046875 C8.82061025 84.89792685 6.81635032 84.14060546 4.625 83.375 C1 82 1 82 0 80 C-0.09292928 77.46714949 -0.12581684 74.96206407 -0.11352539 72.42919922 C-0.11367142 71.64862152 -0.11381744 70.86804382 -0.1139679 70.06381226 C-0.11326986 67.47740931 -0.10548257 64.89107791 -0.09765625 62.3046875 C-0.09579168 60.51392659 -0.09436796 58.72316517 -0.09336853 56.93240356 C-0.08954641 52.21415809 -0.07971871 47.4959433 -0.06866455 42.77770996 C-0.05844389 37.96509211 -0.0538695 33.15246932 -0.04882812 28.33984375 C-0.03809619 18.89321567 -0.0210234 9.44661038 0 0 Z " fill="#0D1522" transform="translate(216,26)"/>
<path d="M0 0 C-0.4305067 4.41006862 -3.4217054 6.83000573 -6.4375 9.75 C-6.94087891 10.25660156 -7.44425781 10.76320313 -7.96289062 11.28515625 C-11.73280618 15 -11.73280618 15 -14 15 C-14.25905121 15.58436829 -14.51810242 16.16873657 -14.78500366 16.77081299 C-16.09233358 19.16940695 -17.50443536 20.74541065 -19.43994141 22.66699219 C-20.14051666 23.36741638 -20.84109192 24.06784058 -21.56289673 24.78948975 C-22.31815643 25.53442688 -23.07341614 26.27936401 -23.8515625 27.046875 C-24.62559418 27.81807678 -25.39962585 28.58927856 -26.19711304 29.3838501 C-28.66841923 31.84396856 -31.14659183 34.29703848 -33.625 36.75 C-35.30254052 38.41750894 -36.97962945 40.08547232 -38.65625 41.75390625 C-42.76560919 45.8412237 -46.88062647 49.92277696 -51 54 C-51 47.76301818 -43.73076124 42.68271278 -39.5546875 38.45703125 C-37.99737177 36.90625886 -36.43744583 35.35810355 -34.875 33.8125 C-34.08996094 33.03197266 -33.30492188 32.25144531 -32.49609375 31.44726562 C-30.98916109 29.94922717 -29.48123802 28.45218413 -27.97216797 26.95629883 C-26.37350243 25.37049702 -24.77974666 23.77974666 -23.1875 22.1875 C-21.80011784 20.80011784 -20.40748979 19.41794585 -19.0078125 18.04296875 C-14.9990029 14.09237838 -11.21467098 10.02346893 -7.53515625 5.765625 C-2.52212389 0 -2.52212389 0 0 0 Z " fill="#0D1B32" transform="translate(97,72)"/>
<path d="M0 0 C0.495 1.485 0.495 1.485 1 3 C-0.87339818 5.04315594 -2.74866634 7.08454259 -4.625 9.125 C-5.14707031 9.69476563 -5.66914063 10.26453125 -6.20703125 10.8515625 C-7.79512197 12.57689563 -9.39531979 14.29009486 -11 16 C-11.53850586 16.58362305 -12.07701172 17.16724609 -12.63183594 17.76855469 C-14.02854791 19.23782313 -15.50928374 20.62620266 -17 22 C-17.99 22 -18.98 22 -20 22 C-20.2371875 22.6084375 -20.474375 23.216875 -20.71875 23.84375 C-22.31730567 26.53400222 -23.68479291 27.18148529 -26.5 28.5 C-27.82837891 29.12648438 -27.82837891 29.12648438 -29.18359375 29.765625 C-32.77616542 31.34017791 -36.40070321 32.80775598 -40.06640625 34.203125 C-41.97145199 34.84334065 -41.97145199 34.84334065 -43 36 C-44.84891946 36.23363881 -46.70488031 36.41303635 -48.5625 36.5625 C-49.57441406 36.64628906 -50.58632812 36.73007812 -51.62890625 36.81640625 C-52.41136719 36.87699219 -53.19382813 36.93757813 -54 37 C-53 35 -53 35 -51.16162109 34.28564453 C-50.37352051 34.07020996 -49.58541992 33.85477539 -48.7734375 33.6328125 C-47.90589844 33.38660156 -47.03835937 33.14039063 -46.14453125 32.88671875 C-44.32196351 32.38544836 -42.49905515 31.88541451 -40.67578125 31.38671875 C-35.23346498 29.83978644 -30.83272365 27.93007654 -26 25 C-25.34 25 -24.68 25 -24 25 C-23.67 24.01 -23.34 23.02 -23 22 C-21.25 20.52734375 -21.25 20.52734375 -19 18.9375 C-14.29815345 15.43180321 -10.62378411 11.41015721 -6.84765625 6.94140625 C-5.93306641 5.98041016 -5.93306641 5.98041016 -5 5 C-4.34 5 -3.68 5 -3 5 C-2.690625 4.360625 -2.38125 3.72125 -2.0625 3.0625 C-1 1 -1 1 0 0 Z " fill="#0A172B" transform="translate(275,278)"/>
<path d="M0 0 C0.33 0 0.66 0 1 0 C1 26.4 1 52.8 1 80 C-2.7688342 81.8844171 -4.68012475 82.33429462 -8.75 82.625 C-10.22726563 82.73714844 -10.22726563 82.73714844 -11.734375 82.8515625 C-12.48203125 82.90054688 -13.2296875 82.94953125 -14 83 C-11.69989124 80.69989124 -10.62478923 80.54115246 -7.5 79.9375 C-4.14540186 79.28047869 -4.14540186 79.28047869 -1 78 C-1.00222061 77.36202988 -1.00444122 76.72405975 -1.00672913 76.0667572 C-1.02921628 69.29947482 -1.04408311 62.53220338 -1.05493164 55.76489258 C-1.0598958 53.25447151 -1.06666932 50.74405323 -1.07543945 48.23364258 C-1.13021685 32.12586713 -0.8840923 16.08525047 0 0 Z " fill="#08162E" transform="translate(196,27)"/>
<path d="M0 0 C0 0.66 0 1.32 0 2 C-0.61875 2.0825 -1.2375 2.165 -1.875 2.25 C-4.15082717 2.776093 -4.15082717 2.776093 -4.90234375 4.8125 C-6.16761886 7.33404471 -7.64700425 8.80972507 -9.6875 10.75 C-12.31784633 13.30989062 -14.8177527 15.88527382 -17.1875 18.6875 C-32.81392852 36.7097425 -32.81392852 36.7097425 -43 41 C-43 40.34 -43 39.68 -43 39 C-41.49609375 37.51953125 -41.49609375 37.51953125 -39.4375 35.8125 C-36.58703416 33.40017997 -33.90390013 30.93843494 -31.3125 28.25 C-28.74156491 25.62635782 -26.22575349 23.79208527 -23 22 C-20.59120835 19.93532144 -20.03668447 19.11005341 -19 16 C-18.01 16 -17.02 16 -16 16 C-15.7421875 15.42765625 -15.484375 14.8553125 -15.21875 14.265625 C-13.88634058 11.78871005 -12.34943882 9.8658834 -10.5 7.75 C-9.58734375 6.69039063 -9.58734375 6.69039063 -8.65625 5.609375 C-7 4 -7 4 -5 4 C-5 3.34 -5 2.68 -5 2 C-2 0 -2 0 0 0 Z " fill="#091222" transform="translate(332,321)"/>
<path d="M0 0 C-9.11866712 6.57769466 -9.11866712 6.57769466 -13 8.4375 C-17.00064655 10.52117008 -20.20536942 13.34288428 -23.6328125 16.2578125 C-25.87181493 17.90565917 -27.28909232 18.58774215 -30 19 C-30 19.66 -30 20.32 -30 21 C-30.66 21 -31.32 21 -32 21 C-32.226875 21.556875 -32.45375 22.11375 -32.6875 22.6875 C-35.37905037 27.42975541 -39.26763801 30.43100349 -44 33 C-42.3260219 28.6834527 -39.16287356 25.82062764 -35.9375 22.625 C-35.35548828 22.04500244 -34.77347656 21.46500488 -34.17382812 20.86743164 C-29.79037444 16.58486505 -25.2326308 13.18604159 -20 10 C-19.154375 9.319375 -18.30875 8.63875 -17.4375 7.9375 C-14.14376428 5.31940238 -10.63033828 3.12190746 -7 1 C-6.32066406 0.60039063 -5.64132813 0.20078125 -4.94140625 -0.2109375 C-3 -1 -3 -1 0 0 Z " fill="#0A162A" transform="translate(141,39)"/>
<path d="M0 0 C0.33 0 0.66 0 1 0 C1.73522927 6.25510441 2.04113951 11.75316297 1 18 C0.68078453 23.45497103 0.68078453 23.45497103 1.50219727 28.80688477 C2.07619315 31.33567587 2.11272958 33.61051175 2.09765625 36.203125 C2.09443359 37.1828125 2.09121094 38.1625 2.08789062 39.171875 C2.07951172 40.18765625 2.07113281 41.2034375 2.0625 42.25 C2.05798828 43.28125 2.05347656 44.3125 2.04882812 45.375 C2.03706088 47.91672573 2.02062011 50.45833319 2 53 C1.67 53 1.34 53 1 53 C-1.26531118 44.22527687 -1.27360784 35.76387814 -1.20581055 26.76708984 C-1.18744006 24.24176003 -1.18530221 21.71679629 -1.18554688 19.19140625 C-1.18063416 17.57030935 -1.17480691 15.94921492 -1.16796875 14.328125 C-1.16629951 13.20763763 -1.16629951 13.20763763 -1.16459656 12.06451416 C-1.12745803 7.94286991 -0.79843658 4.04435009 0 0 Z " fill="#0D1A30" transform="translate(16,190)"/>
<path d="M0 0 C0.33 0 0.66 0 1 0 C1.37399416 11.53148651 -0.23533279 22.2633952 -2.9375 33.4375 C-3.09508789 34.09975586 -3.25267578 34.76201172 -3.41503906 35.44433594 C-4.4679903 39.60760808 -5.95444653 43.22942139 -8 47 C-9 45 -9 45 -8.15625 42.3984375 C-7.7746875 41.27695312 -7.393125 40.15546875 -7 39 C-6.40560173 36.22382677 -5.95373971 33.42721666 -5.5 30.625 C-4.80002355 26.34822082 -4.06891061 22.12601453 -2.9765625 17.9296875 C-1.99709302 14.1489353 -1.39635541 10.37292594 -0.875 6.5 C-0.70742188 5.2728125 -0.53984375 4.045625 -0.3671875 2.78125 C-0.24601562 1.8634375 -0.12484375 0.945625 0 0 Z " fill="#081322" transform="translate(378,222)"/>
<path d="M0 0 C0.33 0 0.66 0 1 0 C1.25187344 4.5337219 1.25187344 4.5337219 0.0546875 6.75 C-1.33874854 9.72266355 -1.60212376 12.49594077 -2 15.75 C-2.45652603 19.45112171 -2.96244125 22.87327507 -4.0234375 26.453125 C-5.75897943 33.10227916 -5.47615153 40.16692485 -5.625 47 C-5.66324966 48.45705282 -5.70230527 49.91408471 -5.7421875 51.37109375 C-5.83742506 54.91386926 -5.92172897 58.4568043 -6 62 C-6.33 62 -6.66 62 -7 62 C-7.7527384 20.07054103 -7.7527384 20.07054103 0 0 Z " fill="#080D17" transform="translate(21,165)"/>
<path d="M0 0 C3.09423168 3.09423168 3.93706005 6.5523812 4.125 10.875 C4.08375 11.57625 4.0425 12.2775 4 13 C4.66 13 5.32 13 6 13 C6.625 16.375 6.625 16.375 7 20 C6.34 20.66 5.68 21.32 5 22 C-0.04538837 15.32706699 0.20693823 8.03955037 0 0 Z " fill="#02060B" transform="translate(22,259)"/>
<path d="M0 0 C3.3 0 6.6 0 10 0 C9.01 0.33 8.02 0.66 7 1 C6.67 1.99 6.34 2.98 6 4 C9.28804981 6.91227269 11.59885603 8.49701212 16 9 C15.67 10.32 15.34 11.64 15 13 C1.94736842 5.84210526 1.94736842 5.84210526 0 0 Z " fill="#091221" transform="translate(230,220)"/>
<path d="M0 0 C0.33 0 0.66 0 1 0 C1 3.3 1 6.6 1 10 C-1.50497004 11.25248502 -3.20853274 11.11374406 -6.0078125 11.09765625 C-6.99394531 11.09443359 -7.98007813 11.09121094 -8.99609375 11.08789062 C-10.02863281 11.07951172 -11.06117187 11.07113281 -12.125 11.0625 C-13.68541016 11.05573242 -13.68541016 11.05573242 -15.27734375 11.04882812 C-17.85161962 11.03701952 -20.42578146 11.02055075 -23 11 C-23 10.67 -23 10.34 -23 10 C-21.80761719 9.93941406 -20.61523438 9.87882813 -19.38671875 9.81640625 C-17.82030075 9.73198851 -16.25389512 9.64734113 -14.6875 9.5625 C-13.90181641 9.52318359 -13.11613281 9.48386719 -12.30664062 9.44335938 C-11.54931641 9.40146484 -10.79199219 9.35957031 -10.01171875 9.31640625 C-9.31522217 9.27974854 -8.61872559 9.24309082 -7.90112305 9.20532227 C-5.7783428 9.04418847 -5.7783428 9.04418847 -3 8 C-1.0549 5.08235 -0.54723683 3.37462715 0 0 Z " fill="#0D1A2F" transform="translate(101,201)"/>
<path d="M0 0 C0.66 0 1.32 0 2 0 C1.39568455 3.60139343 -0.07623781 5.63921775 -2.375 8.4375 C-4.8489961 11.51602492 -7.09484262 14.52588947 -9 18 C-9.33 17.34 -9.66 16.68 -10 16 C-9.0625 13.375 -9.0625 13.375 -8 11 C-7.34 11 -6.68 11 -6 11 C-6.33 9.35 -6.66 7.7 -7 6 C-6.030625 5.38125 -5.06125 4.7625 -4.0625 4.125 C-0.97164638 2.34321154 -0.97164638 2.34321154 0 0 Z " fill="#0A1C35" transform="translate(126,141)"/>
<path d="M0 0 C-0.33 0.66 -0.66 1.32 -1 2 C-3.32156597 2.40729228 -5.6568787 2.74438677 -8 3 C-8 3.66 -8 4.32 -8 5 C-11.41831915 7.5393228 -13.75776898 8.3636198 -18 8 C-15.94766315 5.7522025 -14.99332739 4.9977758 -12 4 C-11.505 3.34 -11.01 2.68 -10.5 2 C-7.54186415 -1.94418113 -4.35298663 -0.87059733 0 0 Z " fill="#030407" transform="translate(159,30)"/>
<path d="M0 0 C0.66 0.33 1.32 0.66 2 1 C-1.56603219 4.83018272 -5.01706201 7.33902067 -10 9 C-10.33 9.99 -10.66 10.98 -11 12 C-16.46511628 17 -16.46511628 17 -19 17 C-19 16.34 -19 15.68 -19 15 C-14.52941176 11 -14.52941176 11 -12 11 C-11.7525 10.40574219 -11.505 9.81148437 -11.25 9.19921875 C-9.80937117 6.66461241 -8.3603228 5.50030435 -6 3.8125 C-4.948125 3.04873047 -4.948125 3.04873047 -3.875 2.26953125 C-2 1 -2 1 0 0 Z " fill="#0D192F" transform="translate(324,134)"/>
<path d="M0 0 C0.66 0.33 1.32 0.66 2 1 C-3.28 6.28 -8.56 11.56 -14 17 C-14 13.02074359 -12.55434721 10.89449898 -10 8 C-6.77132755 5.1913586 -3.41967178 2.57127993 0 0 Z " fill="#040B15" transform="translate(139,132)"/>
<path d="M0 0 C2.32402121 6.97206362 -0.18035046 16.86705422 -3.125 23.4375 C-3.72953883 24.63554593 -4.34587519 25.828291 -5 27 C-6 25 -6 25 -5.16015625 22.421875 C-4.77730469 21.29265625 -4.39445312 20.1634375 -4 19 C-3.38531256 16.0987306 -2.91196157 13.17710154 -2.4375 10.25 C-1.12734375 2.2546875 -1.12734375 2.2546875 0 0 Z " fill="#0F223A" transform="translate(375,242)"/>
<path d="M0 0 C0.66 0.33 1.32 0.66 2 1 C-1.25695147 5.61401459 -5.24286757 9.00362438 -10 12 C-10.66 12 -11.32 12 -12 12 C-12 12.66 -12 13.32 -12 14 C-14.375 15.6875 -14.375 15.6875 -17 17 C-17.66 16.67 -18.32 16.34 -19 16 C-18.01 15.67 -17.02 15.34 -16 15 C-16 14.34 -16 13.68 -16 13 C-15.01 13 -14.02 13 -13 13 C-12.7628125 12.40316406 -12.525625 11.80632812 -12.28125 11.19140625 C-10.71699948 8.51596557 -9.13289494 7.54031753 -6.5 5.9375 C-3.40916124 4.04586654 -2.05635402 3.08453103 0 0 Z " fill="#0E1C2F" transform="translate(345,117)"/>
<path d="M0 0 C3.79698489 2.85279682 6.80208612 5.89309005 9.8125 9.5625 C10.60269531 10.51253906 11.39289063 11.46257812 12.20703125 12.44140625 C14 15 14 15 14 18 C12.29115995 16.37660195 10.62553283 14.70680947 9 13 C9 12.34 9 11.68 9 11 C8.34 11 7.68 11 7 11 C7 10.34 7 9.68 7 9 C6.01 9 5.02 9 4 9 C0 2.25 0 2.25 0 0 Z " fill="#091428" transform="translate(117,265)"/>
<path d="M0 0 C0.66 0 1.32 0 2 0 C1.72285156 1.24136719 1.44570312 2.48273438 1.16015625 3.76171875 C0.79424248 5.40363951 0.42835864 7.04556695 0.0625 8.6875 C-0.11990234 9.50412109 -0.30230469 10.32074219 -0.49023438 11.16210938 C-1.36727628 15.10082483 -2.23340455 19.03791195 -3 23 C-4.4571334 20.65450274 -5.03332363 19.3866798 -4.79296875 16.59765625 C-4.59316406 15.76105469 -4.39335938 14.92445313 -4.1875 14.0625 C-3.99542969 13.22847656 -3.80335937 12.39445313 -3.60546875 11.53515625 C-3.40566406 10.69855469 -3.20585938 9.86195313 -3 9 C-2.66045012 7.33458871 -2.32529466 5.66825426 -2 4 C-1.34 4 -0.68 4 0 4 C0 2.68 0 1.36 0 0 Z " fill="#0D182F" transform="translate(106,176)"/>
<path d="M0 0 C-0.66 1.32 -1.32 2.64 -2 4 C-2.66 4 -3.32 4 -4 4 C-4.24492187 4.57234375 -4.48984375 5.1446875 -4.7421875 5.734375 C-6.21110099 8.38024402 -7.95348244 10.14853139 -10.125 12.25 C-10.84945313 12.95640625 -11.57390625 13.6628125 -12.3203125 14.390625 C-12.87460937 14.92171875 -13.42890625 15.4528125 -14 16 C-14 12.47967572 -13.29648649 11.5614657 -11 9 C-10.34 9 -9.68 9 -9 9 C-9 8.34 -9 7.68 -9 7 C-8.34 7 -7.68 7 -7 7 C-6.731875 6.401875 -6.46375 5.80375 -6.1875 5.1875 C-3.37142857 0 -3.37142857 0 0 0 Z " fill="#0E1C31" transform="translate(347,305)"/>
<path d="M0 0 C1.65 0 3.3 0 5 0 C5.556875 1.3303125 5.556875 1.3303125 6.125 2.6875 C8.33056538 6.58399884 10.46128706 8.32630578 14 11 C13.67 11.66 13.34 12.32 13 13 C11.39179588 11.58791833 9.78859292 10.17013964 8.1875 8.75 C7.29417969 7.96109375 6.40085937 7.1721875 5.48046875 6.359375 C3.35871775 4.34120555 1.65745577 2.40083295 0 0 Z " fill="#071329" transform="translate(65,323)"/>
<path d="M0 0 C0 0.66 0 1.32 0 2 C-0.61875 2.0825 -1.2375 2.165 -1.875 2.25 C-4.1422246 2.7694572 -4.1422246 2.7694572 -4.84375 4.75 C-6.32816797 7.63859714 -8.30039598 9.49181323 -10.625 11.75 C-11.85089844 12.94882812 -11.85089844 12.94882812 -13.1015625 14.171875 C-13.72804688 14.77515625 -14.35453125 15.3784375 -15 16 C-15 13 -15 13 -12.6875 10.5625 C-11.800625 9.716875 -10.91375 8.87125 -10 8 C-9.443125 7.236875 -8.88625 6.47375 -8.3125 5.6875 C-7.6628125 4.8521875 -7.6628125 4.8521875 -7 4 C-6.34 4 -5.68 4 -5 4 C-5 3.34 -5 2.68 -5 2 C-2 0 -2 0 0 0 Z " fill="#0E1C30" transform="translate(332,321)"/>
<path d="M0 0 C0.66 0.99 1.32 1.98 2 3 C1.2575 3.495 0.515 3.99 -0.25 4.5 C-3.25556223 7.2323293 -4.44196523 9.52319279 -6.0078125 13.1953125 C-7 15 -7 15 -10 17 C-8.68018255 12.31812124 -6.80204328 8.99625079 -3.875 5.125 C-3.15054688 4.15820312 -2.42609375 3.19140625 -1.6796875 2.1953125 C-1.12539063 1.47085938 -0.57109375 0.74640625 0 0 Z " fill="#0B192A" transform="translate(39,131)"/>
<path d="M0 0 C4.12542568 0.6901558 7.8451293 1.94887848 11.75 3.4375 C13.47476563 4.08525391 13.47476563 4.08525391 15.234375 4.74609375 C18 6 18 6 19 8 C12.11140023 7.29347695 5.2596843 4.57363852 0 0 Z " fill="#0A172B" transform="translate(135,380)"/>
<path d="M0 0 C1.32 0 2.64 0 4 0 C4 0.66 4 1.32 4 2 C4.928125 2.12375 4.928125 2.12375 5.875 2.25 C8 3 8 3 9 4.875 C9.33 5.57625 9.66 6.2775 10 7 C12.03317007 8.73425773 12.03317007 8.73425773 14 10 C13.67 10.66 13.34 11.32 13 12 C10.83035229 10.19096681 8.66421535 8.37801121 6.5 6.5625 C5.87996094 6.04623047 5.25992187 5.52996094 4.62109375 4.99804688 C3.06197284 3.68735732 1.52871719 2.34602708 0 1 C0 0.67 0 0.34 0 0 Z " fill="#0C1428" transform="translate(261,133)"/>
<path d="M0 0 C5.54495227 2.0595537 10.07403529 4.49241089 14 9 C14 9.66 14 10.32 14 11 C10.50004453 9.43810398 7.72827143 7.33666309 4.75 4.9375 C3.85796875 4.22464844 2.9659375 3.51179687 2.046875 2.77734375 C1.37140625 2.19082031 0.6959375 1.60429687 0 1 C0 0.67 0 0.34 0 0 Z " fill="#0B1626" transform="translate(261,245)"/>
<path d="M0 0 C2.9719385 1.12451727 5.33440687 2.22293791 8 4 C8 4.66 8 5.32 8 6 C8.639375 6.28875 9.27875 6.5775 9.9375 6.875 C12 8 12 8 13 10 C10 10 10 10 8 8.125 C7.34 7.42375 6.68 6.7225 6 6 C5.01 5.34 4.02 4.68 3 4 C3 3.34 3 2.68 3 2 C2.01 1.67 1.02 1.34 0 1 C0 0.67 0 0.34 0 0 Z " fill="#0B1323" transform="translate(298,61)"/>
<path d="M0 0 C6.03280791 1.6166348 9.950809 3.16709462 14 8 C8.76481294 6.56032356 4.36973991 4.18303389 0 1 C0 0.67 0 0.34 0 0 Z " fill="#0B1524" transform="translate(261,38)"/>
<path d="M0 0 C0.66 0.33 1.32 0.66 2 1 C1.06862408 2.29608947 0.1296434 3.58671632 -0.8125 4.875 C-1.33457031 5.59429687 -1.85664063 6.31359375 -2.39453125 7.0546875 C-4 9 -4 9 -7 11 C-6.6875 9.125 -6.6875 9.125 -6 7 C-5.01 6.34 -4.02 5.68 -3 5 C-1.94895617 3.36504293 -0.94011682 1.70116376 0 0 Z " fill="#111E33" transform="translate(354,294)"/>
<path d="M0 0 C0.99 0.33 1.98 0.66 3 1 C0.36 3.64 -2.28 6.28 -5 9 C-5.33 8.34 -5.66 7.68 -6 7 C-4.02 4.69 -2.04 2.38 0 0 Z " fill="#0B1C36" transform="translate(263,291)"/>
<path d="M0 0 C0.33 0.66 0.66 1.32 1 2 C-0.98 4.31 -2.96 6.62 -5 9 C-5.99 8.67 -6.98 8.34 -8 8 C-5.36 5.36 -2.72 2.72 0 0 Z " fill="#0C172A" transform="translate(284,269)"/>
<path d="M0 0 C0.99 0.33 1.98 0.66 3 1 C3 1.66 3 2.32 3 3 C3.66 3 4.32 3 5 3 C6.38232443 4.62626404 7.71937515 6.2925002 9 8 C8.67 8.66 8.34 9.32 8 10 C4.82537057 7.59757773 2.14248259 5.38286724 0 2 C0 1.34 0 0.68 0 0 Z " fill="#07152D" transform="translate(45,302)"/>
<path d="M0 0 C4.31320068 1.75722991 7.9031084 4.8062168 10 9 C7.50638429 7.79618552 5.31856917 6.54571278 3 5 C3 4.34 3 3.68 3 3 C2.01 2.67 1.02 2.34 0 2 C0 1.34 0 0.68 0 0 Z " fill="#0A1321" transform="translate(311,71)"/>
<path d="M0 0 C3.3 0 6.6 0 10 0 C9.01 0.33 8.02 0.66 7 1 C6.67 1.66 6.34 2.32 6 3 C3 3 3 3 0 2 C0 1.34 0 0.68 0 0 Z " fill="#121D31" transform="translate(230,220)"/>
<path d="M0 0 C0.93423645 3.01031744 1.04449911 3.86650268 0 7 C-0.66 7 -1.32 7 -2 7 C-2.33 7.99 -2.66 8.98 -3 10 C-4 7 -4 7 -3.22265625 5.17578125 C-2.1484375 3.45052083 -1.07421875 1.72526042 0 0 Z " fill="#0D1829" transform="translate(368,269)"/>
<path d="M0 0 C2.3129482 2.3129482 2.49580975 3.47904875 3.125 6.625 C3.29257812 7.44226563 3.46015625 8.25953125 3.6328125 9.1015625 C3.81457031 10.04128906 3.81457031 10.04128906 4 11 C3.34 11 2.68 11 2 11 C0.80712589 7.12315913 0 4.08378077 0 0 Z " fill="#09172D" transform="translate(22,259)"/>
<path d="M0 0 C1.21386936 3.64160808 0.6674695 4.33165469 -0.9375 7.6875 C-1.31777344 8.49574219 -1.69804687 9.30398438 -2.08984375 10.13671875 C-2.39019531 10.75160156 -2.69054687 11.36648438 -3 12 C-4 10 -4 10 -3.1875 7.125 C-2.24475819 4.6441005 -1.2557794 2.33216175 0 0 Z " fill="#0A111F" transform="translate(373,257)"/>
<path d="M0 0 C5.57142857 5.14285714 5.57142857 5.14285714 6 9 C1.2 5.67692308 1.2 5.67692308 0.1875 2.25 C0.125625 1.5075 0.06375 0.765 0 0 Z " fill="#071329" transform="translate(111,256)"/>
<path d="M0 0 C1.5 1.375 1.5 1.375 3 3 C3 3.66 3 4.32 3 5 C3.66 5 4.32 5 5 5 C5 5.99 5 6.98 5 8 C2 7 2 7 0 4 C0 2.68 0 1.36 0 0 Z " fill="#061124" transform="translate(33,285)"/>
<path d="M0 0 C2.3125 0.1875 2.3125 0.1875 5 1 C6.8125 3.5625 6.8125 3.5625 8 6 C4.08597051 4.73058503 2.20927127 3.48832306 0 0 Z " fill="#091326" transform="translate(253,239)"/>
<path d="M0 0 C0.95465783 2.16967689 1.14401212 3.56328793 0.3984375 5.82421875 C-0.35870385 7.5684743 -1.17609198 9.28627131 -2 11 C-2.95465783 8.83032311 -3.14401212 7.43671207 -2.3984375 5.17578125 C-1.64129615 3.4315257 -0.82390802 1.71372869 0 0 Z " fill="#0C1A30" transform="translate(111,165)"/>
<path d="M0 0 C-3.51187196 2.40814077 -5.72656908 3.36629408 -10 3 C-6.81859267 -0.48439851 -4.56758339 -1.41752588 0 0 Z " fill="#081524" transform="translate(151,35)"/>
<path d="M0 0 C1.65 0 3.3 0 5 0 C5.33 1.32 5.66 2.64 6 4 C4.125 3.6875 4.125 3.6875 2 3 C1.34 2.01 0.68 1.02 0 0 Z " fill="#0A1B32" transform="translate(65,323)"/>
<path d="M0 0 C0.33 0 0.66 0 1 0 C1.144375 1.0725 1.28875 2.145 1.4375 3.25 C1.83749442 5.91662949 2.27591924 8.41399729 3 11 C2.01 11 1.02 11 0 11 C0 7.37 0 3.74 0 0 Z " fill="#141F31" transform="translate(217,96)"/>
</svg>
