<?xml version="1.0" encoding="UTF-8"?>
<svg id="Icon" xmlns="http://www.w3.org/2000/svg" viewBox="0 0 1200 511.32">
  <defs>
    <style>
      .cls-1 {
        fill: #f97316;
      }

      .cls-2 {
        fill: #0078ff;
      }
    </style>
  </defs>
  <path class="cls-1" d="M1003.84,299.88h15.72c29.95,0,31.44,13.82,31.44,38v126.45c-22.46,4.15-47.92,6.22-75.62,6.22-116.05,0-183.44-63.57-183.44-211.44,0-140.27,66.63-216.96,172.95-216.96,70.38,0,110.06,22.11,122.79,59.42l8.98,26.95c5.24,15.89,12.73,20.04,23.21,20.04h13.48c14.97,0,18.72-4.84,17.22-21.42l-8.24-77.39c-2.99-32.48-67.38-49.75-177.44-49.75-188.68,0-298.74,92.59-298.74,266.02,0,183.11,129.53,245.29,305.48,245.29,82.36,0,131.02-8.29,170.71-21.42,17.97-5.53,21.71-13.13,21.71-26.95v-128.52c0-25.57,4.49-34.55,14.98-34.55h20.96v-39.98h-196.16v39.98Z"/>
  <g>
    <path class="cls-2" d="M717.57,487.22c-67.84-47.95-102.23-122.37-102.23-221.19,0-47.5,7.66-90.68,22.78-128.36,15.31-38.17,38.29-70.88,68.3-97.2,8.71-7.64,17.97-14.71,27.74-21.22-2.33-7.86-9.16-11.65-23.73-11.65h-112.31c-27.7,0-32.2,7.6-42.68,31.09l-152.74,332.36L235.74,38.69c-11.98-24.18-23.96-31.09-50.17-31.09h-120.55v40.07h10.49c27.7,0,30.7,2.77,30.7,18.66v56.27h-41.19v40.08h10.49c27.7,0,30.7,2.76,30.7,18.66v53.66h-41.19v40.07h10.49c27.7,0,30.7,2.76,30.7,18.66v53.66h-41.19v40.08h10.49c27.7,0,30.7,2.76,30.7,18.66v31.5c-.75,20.73-7.49,27.19-38.18,27.19h-3v40.28h135.52v-40.28h-3c-33.69,0-35.19-13.37-35.19-37.56V125.76l163.86,350.1c5.1,10.69,15.88,17.49,27.72,17.49h44.26l173.7-375.89v320.16c-.75,20.73-6.74,27.19-38.93,27.19h-2.99v40.28h218.09c-6.95-4-24.14-13.39-30.5-17.88Z"/>
    <g>
      <path class="cls-2" d="M24.32,3.08C10.89,3.08,0,13.97,0,27.4s10.89,24.32,24.32,24.32,24.32-10.89,24.32-24.32S37.75,3.08,24.32,3.08Z"/>
      <path class="cls-2" d="M24.32,117.97C10.89,117.97,0,128.86,0,142.29s10.89,24.32,24.32,24.32,24.32-10.89,24.32-24.32-10.89-24.32-24.32-24.32Z"/>
      <path class="cls-2" d="M24.32,230.56C10.89,230.56,0,241.44,0,254.87s10.89,24.32,24.32,24.32,24.32-10.89,24.32-24.32-10.89-24.32-24.32-24.32Z"/>
      <path class="cls-2" d="M24.32,342.9C10.89,342.9,0,353.79,0,367.22s10.89,24.32,24.32,24.32,24.32-10.89,24.32-24.32-10.89-24.32-24.32-24.32Z"/>
    </g>
  </g>
</svg>