<?xml version="1.0" encoding="UTF-8"?>
<svg id="Horizontal" xmlns="http://www.w3.org/2000/svg" viewBox="0 0 2400 175.31">
  <defs>
    <style>
      .cls-1 {
        fill: #f97316;
      }

      .cls-2 {
        fill: #0078ff;
      }

      .cls-3 {
        fill: #2f3747;
      }
    </style>
  </defs>
  <g>
    <g>
      <path class="cls-3" d="M709.8,150.56h-1.15c-13.53,0-13.99-2.87-13.99-12.49V28.57c0-5.53,1.15-6.14,10.32-6.14h1.83c3.9,0,5.96-1.23,5.96-4.3v-.82c0-3.07-1.38-4.5-5.96-4.5h-32.1c-6.19,0-7.57,1.64-10.09,6.75l-52.96,110.94-55.71-110.94c-2.75-5.12-6.42-6.75-11.92-6.75h-33.47c-4.36,0-5.96,1.43-5.96,4.5v.82c0,3.07,2.29,4.3,5.96,4.3h1.83c9.86,0,12.15.61,12.61,4.71v111.56c0,10.03-.92,11.87-14.67,11.87h-1.15c-5.04,0-6.19,1.43-6.19,4.5v.82c0,3.07,2.29,4.3,6.19,4.3h44.71c4.13,0,6.42-1.23,6.42-4.3v-.82c0-3.07-1.38-4.5-6.42-4.5h-1.15c-13.76,0-14.21-2.87-14.21-12.49V39.62l58.7,118.31c1.15,2.87,2.75,3.68,6.88,3.68h1.83c3.44,0,4.36-.82,5.73-3.68l58.92-121.18v105.42c-.46,6.96-2.52,8.39-14.9,8.39h-1.15c-4.81,0-5.96,1.43-5.96,4.5v.82c0,3.07,2.06,4.3,5.96,4.3h55.26c4.13,0,6.42-1.23,6.42-4.3v-.82c0-3.07-1.38-4.5-6.42-4.5Z"/>
      <path class="cls-3" d="M781.1,150.4h-.92c-12.15,0-12.61-2.75-12.61-12.06V63.65c0-5.29-1.38-7.83-5.27-7.83-2.29,0-3.9.85-10.55,2.54-6.65,1.69-14.44,2.75-22.01,2.75-4.13,0-5.5,1.48-5.5,4.87v.42c0,2.96,1.6,4.44,5.5,4.44h5.96c5.5,0,6.88,1.48,6.88,10.16v57.77c0,9.94-.69,11.64-12.84,11.64h-.92c-4.59,0-5.73,1.48-5.73,4.66v.63c0,3.17,2.06,4.44,5.73,4.44h52.28c3.67,0,5.96-1.27,5.96-4.44v-.63c0-3.17-1.38-4.66-5.96-4.66Z"/>
      <path class="cls-3" d="M754.96,38.68c8.71,0,15.13-5.92,15.13-13.12s-6.42-12.91-14.9-12.91c-8.02,0-14.9,5.71-14.9,12.91s6.88,13.12,14.67,13.12Z"/>
      <path class="cls-3" d="M922.56,150.4h-2.98c-7.11,0-10.32-3.39-10.32-14.18v-44.43c0-21.58-11.01-35.76-36.91-35.76-16.05,0-29.35,5.29-36.91,17.35v-9.52c0-5.29-1.37-7.83-5.27-7.83-2.29,0-3.9,1.06-10.55,2.54-6.65,1.69-14.44,2.75-22.01,2.75-4.13,0-5.73,1.48-5.73,4.87v.42c0,3.17,1.83,4.44,5.73,4.44h5.96c5.5,0,6.88,1.48,6.88,10.16v57.55c0,9.94-.69,11.64-12.84,11.64h-1.15c-4.36,0-5.5,1.48-5.5,4.66v.63c0,3.17,1.38,4.44,5.5,4.44h52.5c3.67,0,5.73-1.27,5.73-4.44v-.63c0-3.17-1.15-4.66-5.73-4.66h-.92c-12.15,0-12.61-2.75-12.61-12.06v-40.84c2.06-20.1,15.82-29.41,29.35-29.41,11.46,0,19.72,6.56,19.72,23.7v44.22c0,18.41,6.42,24.12,24.76,24.12h13.3c3.67,0,6.19-1.06,6.19-4.23v-1.06c0-3.39-2.52-4.44-6.19-4.44Z"/>
      <path class="cls-3" d="M1058.75,150.4h-.92c-10.78,0-12.84-2.12-12.84-13.12V63.44c0-5.29-1.38-7.83-5.04-7.83-2.52,0-3.9,1.06-10.55,2.54-6.65,1.69-14.44,2.75-22.01,2.75-4.13,0-5.73,1.48-5.73,4.87v.42c0,3.17,1.83,4.44,5.73,4.44h5.73c5.73,0,7.11,1.48,7.11,10.16v36.82c-.69,22.43-15.59,33.22-29.81,33.22-11.01,0-19.49-6.56-19.49-23.7v-63.69c0-5.29-1.38-7.83-5.04-7.83-2.52,0-3.9,1.06-10.55,2.54-6.65,1.69-14.44,2.75-22.01,2.75-4.36,0-5.73,1.48-5.73,4.87v.42c0,3.17,1.61,4.44,5.73,4.44h5.73c5.73,0,7.11,1.48,7.11,10.16v45.7c0,21.58,11.01,35.34,36.91,35.34,16.74,0,30.04-5.5,37.6-18.62,1.83,12.48,10.09,16.93,25.68,16.93h12.38c3.67,0,5.73-1.27,5.73-4.44v-.63c0-3.17-1.38-4.66-5.73-4.66Z"/>
      <path class="cls-3" d="M1136.24,149.56c-2.52.42-6.19,1.48-11.46,1.48-11.46,0-15.82-4.87-15.82-21.58l-.46-61.15h23.16c4.13,0,5.27-1.27,5.27-4.44v-1.27c0-3.39-1.38-4.44-5.27-4.44h-23.16v-16.93c0-7.41-.69-9.1-5.5-9.1-9.63,0-4.59,26.03-30.49,26.03-3.44,0-5.04.85-5.04,4.23v1.9c0,2.96,1.38,4.02,5.04,4.02h11.01v57.55c0,23.49,7.11,35.97,33.47,35.97,7.57,0,16.05-1.48,20.18-2.54,3.9-1.27,4.81-2.33,4.81-6.35,0-3.17-1.6-4.44-5.73-3.39Z"/>
      <path class="cls-3" d="M1240.32,108.72c6.65,0,8.03-1.9,8.03-7.19,0-27.72-16.51-45.49-48.84-45.49-34.85,0-52.96,18.62-52.96,53.11,0,39.78,23.62,52.9,60.99,52.9,14.67,0,27.97-2.33,36-4.87,3.21-1.06,4.13-2.54,4.13-5.71v-1.06c0-3.6-1.6-4.44-5.5-3.39-7.11,1.69-17.2,4.44-30.49,4.44-22.01,0-39.89-9.1-39.89-38.51v-4.23h68.55ZM1199.74,64.92c18.11,0,24.76,14.6,24.76,34.28h-52.73c1.38-21.37,9.63-34.28,27.97-34.28Z"/>
      <path class="cls-3" d="M1312.08,97.72l-6.65-1.48c-21.09-4.87-24.99-9.52-24.99-15.87,0-8.68,6.88-14.81,24.53-14.81,15.59,0,21.09,3.81,22.93,12.06l1.15,4.44c.92,3.6,2.06,4.23,5.73,4.23h1.83c3.44,0,5.04-1.06,4.59-4.65l-1.38-15.24c-.46-2.75-1.15-4.44-5.27-6.14-5.04-2.33-15.13-4.23-29.12-4.23-24.76,0-44.25,8.68-44.25,30.26,0,15.66,10.09,24.97,31.64,30.26l9.4,2.33c19.72,4.87,23.62,10.16,23.62,17.14,0,9.95-8.48,15.87-24.76,15.87s-22.47-3.81-25.22-12.27l-2.29-7.41c-1.15-3.81-2.29-4.66-5.96-4.66h-2.52c-3.67,0-4.59,1.06-4.13,4.66l2.29,17.77c.46,3.39,2.29,4.66,5.04,6.14,7.57,3.6,19.72,5.5,32.33,5.5,25.91,0,45.17-9.52,45.17-32.59,0-14.81-10.09-26.03-33.7-31.32Z"/>
    </g>
    <g>
      <path class="cls-3" d="M1510.18,89.75h-48.61c-4.36,0-6.19,1.22-6.19,4.25v.81c0,3.04,1.15,4.45,6.19,4.45h4.13c11.69,0,12.15,2.84,12.15,12.35v37.87c-8.25,1.82-18.57,3.04-30.27,3.04-37.37,0-61.22-17.62-61.22-64.39,0-42.93,20.63-65.61,59.84-65.61,22.7,0,35.31,7.09,38.29,17.82l2.06,7.69c1.15,4.05,2.52,5.06,5.5,5.06h3.9c3.21,0,4.36-1.22,3.9-5.06l-1.6-19.44c-.69-8.3-20.41-15.79-52.05-15.79-56.4,0-87.81,27.13-87.81,76.54,0,53.86,37.6,72.69,88.5,72.69,25.68,0,39.89-3.24,50.44-6.68,4.59-1.42,5.5-3.24,5.5-6.28v-40.09c.23-8.1,2.29-9.72,6.19-9.72h1.15c4.59,0,5.5-1.42,5.5-4.45v-.81c0-3.04-1.83-4.25-5.5-4.25Z"/>
      <path class="cls-3" d="M1617.24,108.72c6.65,0,8.03-1.9,8.03-7.19,0-27.72-16.51-45.49-48.84-45.49-34.85,0-52.96,18.62-52.96,53.11,0,39.78,23.62,52.9,60.99,52.9,14.67,0,27.97-2.33,36-4.87,3.21-1.06,4.13-2.54,4.13-5.71v-1.06c0-3.6-1.6-4.44-5.5-3.39-7.11,1.69-17.2,4.44-30.49,4.44-22.01,0-39.89-9.1-39.89-38.51v-4.23h68.55ZM1576.66,64.92c18.11,0,24.76,14.6,24.76,34.28h-52.73c1.38-21.37,9.63-34.28,27.97-34.28Z"/>
      <path class="cls-3" d="M1765.58,150.4h-2.98c-7.11,0-10.32-3.39-10.32-14.18v-44.43c0-21.58-11.01-35.76-36.91-35.76-16.05,0-29.35,5.29-36.91,17.35v-9.52c0-5.29-1.37-7.83-5.27-7.83-2.29,0-3.9,1.06-10.55,2.54-6.65,1.69-14.44,2.75-22.01,2.75-4.13,0-5.73,1.48-5.73,4.87v.42c0,3.17,1.83,4.44,5.73,4.44h5.96c5.5,0,6.88,1.48,6.88,10.16v57.55c0,9.94-.69,11.64-12.84,11.64h-1.15c-4.36,0-5.5,1.48-5.5,4.66v.63c0,3.17,1.38,4.44,5.5,4.44h52.5c3.67,0,5.73-1.27,5.73-4.44v-.63c0-3.17-1.15-4.66-5.73-4.66h-.92c-12.15,0-12.61-2.75-12.61-12.06v-40.84c2.06-20.1,15.82-29.41,29.35-29.41,11.46,0,19.72,6.56,19.72,23.7v44.22c0,18.41,6.42,24.12,24.76,24.12h13.3c3.67,0,6.19-1.06,6.19-4.23v-1.06c0-3.39-2.52-4.44-6.19-4.44Z"/>
      <path class="cls-3" d="M1870.59,108.72c6.65,0,8.03-1.9,8.03-7.19,0-27.72-16.51-45.49-48.84-45.49-34.85,0-52.96,18.62-52.96,53.11,0,39.78,23.62,52.9,60.99,52.9,14.67,0,27.97-2.33,36-4.87,3.21-1.06,4.13-2.54,4.13-5.71v-1.06c0-3.6-1.6-4.44-5.5-3.39-7.11,1.69-17.2,4.44-30.49,4.44-22.01,0-39.89-9.1-39.89-38.51v-4.23h68.55ZM1830,64.92c18.11,0,24.76,14.6,24.76,34.28h-52.73c1.38-21.37,9.63-34.28,27.97-34.28Z"/>
      <path class="cls-3" d="M1965.96,56.24c-13.76,0-26.6,7.19-34.16,23.49v-16.29c0-5.29-1.37-7.83-5.27-7.83-2.29,0-3.9,1.06-10.55,2.54-6.65,1.69-14.44,2.75-22.01,2.75-4.13,0-5.5,1.48-5.5,4.87v.42c0,3.17,1.61,4.44,5.5,4.44h5.96c5.5,0,6.88,1.48,6.88,10.16v57.98c0,9.94-.69,11.64-12.84,11.64h-.92c-4.59,0-5.73,1.48-5.73,4.66v.63c0,3.17,2.06,4.44,5.73,4.44h52.28c3.67,0,5.96-1.27,5.96-4.44v-.63c0-3.17-1.38-4.66-5.96-4.66h-.92c-12.15,0-12.61-2.75-12.61-12.06v-21.16c0-34.7,15.36-47.4,27.06-47.4,9.86,0,11.01,7.41,11.92,19.26,0,2.33.69,3.6,4.59,3.6h2.29c3.44,0,4.36-1.06,4.81-5.5l1.15-18.83c.46-6.77-3.67-12.06-17.66-12.06Z"/>
      <path class="cls-3" d="M2097.79,150.4c-9.17,0-11.92-1.27-11.92-16.72v-37.24c0-31.1-22.24-40.2-49.75-40.2-21.78,0-38.98,4.23-38.75,12.27l.46,18.2c0,4.65,1.38,5.71,4.81,5.71h2.06c3.21,0,4.36-.85,4.81-3.81.92-14.39,9.4-21.79,25.91-21.79s27.06,6.77,27.06,27.51v11.64h-10.78c-40.35,0-62.36,7.41-62.36,29.83,0,17.56,12.38,26.03,34.85,26.03,19.26,0,32.79-5.92,38.75-15.45.69,9.1,6.42,13.75,19.49,13.75h13.53c5.73,0,7.11-1.06,7.11-3.81v-1.48c0-3.39-1.6-4.44-5.27-4.44ZM2062.71,124.8c0,15.45-11.23,26.03-28.89,26.03-13.07,0-19.49-5.29-19.49-16.72,0-12.06,9.86-18.62,38.06-18.62h10.32v9.31Z"/>
      <path class="cls-3" d="M2172.07,149.56c-2.52.42-6.19,1.48-11.46,1.48-11.46,0-15.82-4.87-15.82-21.58l-.46-61.15h23.16c4.13,0,5.27-1.27,5.27-4.44v-1.27c0-3.39-1.38-4.44-5.27-4.44h-23.16v-16.93c0-7.41-.69-9.1-5.5-9.1-9.63,0-4.59,26.03-30.49,26.03-3.44,0-5.04.85-5.04,4.23v1.9c0,2.96,1.38,4.02,5.04,4.02h11.01v57.55c0,23.49,7.11,35.97,33.47,35.97,7.57,0,16.05-1.48,20.18-2.54,3.9-1.27,4.81-2.33,4.81-6.35,0-3.17-1.6-4.44-5.73-3.39Z"/>
      <path class="cls-3" d="M2238.56,55.82c-41.5,0-56.4,26.03-56.4,53.75s14.9,52.69,56.4,52.69,56.4-24.97,56.4-52.69-14.9-53.75-56.4-53.75ZM2238.56,152.52c-21.32,0-30.49-18.83-30.49-42.95s9.17-44.22,30.49-44.22,30.49,20.1,30.49,44.22-9.17,42.95-30.49,42.95Z"/>
      <path class="cls-3" d="M2382.31,56.24c-13.76,0-26.6,7.19-34.16,23.49v-16.29c0-5.29-1.37-7.83-5.27-7.83-2.29,0-3.9,1.06-10.55,2.54-6.65,1.69-14.44,2.75-22.01,2.75-4.13,0-5.5,1.48-5.5,4.87v.42c0,3.17,1.61,4.44,5.5,4.44h5.96c5.5,0,6.88,1.48,6.88,10.16v57.98c0,9.94-.69,11.64-12.84,11.64h-.92c-4.59,0-5.73,1.48-5.73,4.66v.63c0,3.17,2.06,4.44,5.73,4.44h52.28c3.67,0,5.96-1.27,5.96-4.44v-.63c0-3.17-1.38-4.66-5.96-4.66h-.92c-12.15,0-12.61-2.75-12.61-12.06v-21.16c0-34.7,15.36-47.4,27.06-47.4,9.86,0,11.01,7.41,11.92,19.26,0,2.33.69,3.6,4.59,3.6h2.29c3.44,0,4.36-1.06,4.81-5.5l1.15-18.83c.46-6.77-3.67-12.06-17.66-12.06Z"/>
    </g>
  </g>
  <g>
    <path class="cls-1" d="M344.18,102.82h5.39c10.27,0,10.78,4.74,10.78,13.03v43.35c-7.7,1.42-16.43,2.13-25.93,2.13-39.79,0-62.89-21.8-62.89-72.49,0-48.09,22.85-74.39,59.3-74.39,24.13,0,37.74,7.58,42.1,20.37l3.08,9.24c1.8,5.45,4.36,6.87,7.96,6.87h4.62c5.13,0,6.42-1.66,5.9-7.34l-2.82-26.53c-1.03-11.13-23.1-17.06-60.84-17.06-64.69,0-102.43,31.75-102.43,91.21,0,62.78,44.41,84.1,104.74,84.1,28.24,0,44.92-2.84,58.53-7.34,6.16-1.89,7.44-4.5,7.44-9.24v-44.06c0-8.77,1.54-11.85,5.13-11.85h7.19v-13.71h-67.26v13.71Z"/>
    <g>
      <path class="cls-2" d="M246.03,167.05c-23.26-16.44-35.05-41.95-35.05-75.84,0-16.28,2.63-31.09,7.81-44.01,5.25-13.09,13.13-24.3,23.42-33.33,2.99-2.62,6.16-5.04,9.51-7.27-.8-2.69-3.14-3.99-8.14-3.99h-38.51c-9.5,0-11.04,2.61-14.63,10.66l-52.37,113.95L80.82,13.27c-4.11-8.29-8.21-10.66-17.2-10.66H22.35v13.74h3.54c9.5,0,10.52.95,10.52,6.4v19.29h-14.06v13.74h3.54c9.5,0,10.52.95,10.52,6.4v18.4h-14.06v13.74h3.54c9.5,0,10.52.95,10.52,6.4v18.4h-14.06v13.74h3.54c9.5,0,10.52.95,10.52,6.4v10.8c-.26,7.11-2.57,9.32-13.09,9.32h-1.03v13.81h46.46v-13.81h-1.03c-11.55,0-12.06-4.59-12.06-12.88V43.12l56.18,120.04c1.75,3.66,5.45,6,9.5,6h15.18l59.56-128.88v109.77c-.26,7.11-2.31,9.32-13.35,9.32h-1.03v13.81h74.77c-2.38-1.37-8.28-4.59-10.46-6.13Z"/>
      <g>
        <path class="cls-2" d="M8.34,1.06C3.73,1.06,0,4.79,0,9.39s3.73,8.34,8.34,8.34,8.34-3.73,8.34-8.34S12.94,1.06,8.34,1.06Z"/>
        <path class="cls-2" d="M8.34,40.45C3.73,40.45,0,44.18,0,48.79s3.73,8.34,8.34,8.34,8.34-3.73,8.34-8.34-3.73-8.34-8.34-8.34Z"/>
        <path class="cls-2" d="M8.34,79.05C3.73,79.05,0,82.78,0,87.39s3.73,8.34,8.34,8.34,8.34-3.73,8.34-8.34-3.73-8.34-8.34-8.34Z"/>
        <path class="cls-2" d="M8.34,117.57C3.73,117.57,0,121.3,0,125.91s3.73,8.34,8.34,8.34,8.34-3.73,8.34-8.34-3.73-8.34-8.34-8.34Z"/>
      </g>
    </g>
  </g>
</svg>